<svg xmlns="http://www.w3.org/2000/svg" width="762" height="126" role="img" aria-label="GitHub Activity for hmente">
<style>
  :root{ --fg:#57606a; --muted:#6e7781; --empty:#ebedf0; --stroke:#ffffff; }
  @media (prefers-color-scheme: dark){
    :root{ --fg:#8b949e; --muted:#8b949e; --empty:#161b22; --stroke:#0d1117; }
  }
  .lbl{ font:10px -apple-system,BlinkMacSystemFont,Segoe UI,Roboto,Helvetica,Arial,sans-serif; fill:var(--muted); }
  .l0{ fill:var(--empty); }
  .l1{ fill:#9be9a8 } .l2{ fill:#40c463 } .l3{ fill:#30a14e } .l4{ fill:#216e39 }
  @media (prefers-color-scheme: dark){
    .l1{ fill:#0e4429 } .l2{ fill:#006d32 } .l3{ fill:#26a641 } .l4{ fill:#39d353 }
  }
  .c{ shape-rendering:crispEdges; stroke:var(--stroke); stroke-width:1 }
</style>
<text class="lbl" x="20" y="14">Nov</text>
<text class="lbl" x="48" y="14">Dec</text>
<text class="lbl" x="118" y="14">Jan</text>
<text class="lbl" x="174" y="14">Feb</text>
<text class="lbl" x="230" y="14">Mar</text>
<text class="lbl" x="300" y="14">Apr</text>
<text class="lbl" x="356" y="14">May</text>
<text class="lbl" x="412" y="14">Jun</text>
<text class="lbl" x="482" y="14">Jul</text>
<text class="lbl" x="538" y="14">Aug</text>
<text class="lbl" x="608" y="14">Sep</text>
<text class="lbl" x="664" y="14">Oct</text>
<text class="lbl" x="720" y="14">Nov</text>
<rect x="20" y="18" width="12" height="12" class="c l0"><title>2024-11-17: 0 contributions</title></rect>
<rect x="20" y="32" width="12" height="12" class="c l0"><title>2024-11-18: 0 contributions</title></rect>
<rect x="20" y="46" width="12" height="12" class="c l0"><title>2024-11-19: 0 contributions</title></rect>
<rect x="20" y="60" width="12" height="12" class="c l0"><title>2024-11-20: 0 contributions</title></rect>
<rect x="20" y="74" width="12" height="12" class="c l0"><title>2024-11-21: 0 contributions</title></rect>
<rect x="20" y="88" width="12" height="12" class="c l0"><title>2024-11-22: 0 contributions</title></rect>
<rect x="20" y="102" width="12" height="12" class="c l0"><title>2024-11-23: 0 contributions</title></rect>
<rect x="34" y="18" width="12" height="12" class="c l0"><title>2024-11-24: 0 contributions</title></rect>
<rect x="34" y="32" width="12" height="12" class="c l1"><title>2024-11-25: 1 contributions</title></rect>
<rect x="34" y="46" width="12" height="12" class="c l0"><title>2024-11-26: 0 contributions</title></rect>
<rect x="34" y="60" width="12" height="12" class="c l0"><title>2024-11-27: 0 contributions</title></rect>
<rect x="34" y="74" width="12" height="12" class="c l0"><title>2024-11-28: 0 contributions</title></rect>
<rect x="34" y="88" width="12" height="12" class="c l0"><title>2024-11-29: 0 contributions</title></rect>
<rect x="34" y="102" width="12" height="12" class="c l0"><title>2024-11-30: 0 contributions</title></rect>
<rect x="48" y="18" width="12" height="12" class="c l0"><title>2024-12-01: 0 contributions</title></rect>
<rect x="48" y="32" width="12" height="12" class="c l0"><title>2024-12-02: 0 contributions</title></rect>
<rect x="48" y="46" width="12" height="12" class="c l0"><title>2024-12-03: 0 contributions</title></rect>
<rect x="48" y="60" width="12" height="12" class="c l0"><title>2024-12-04: 0 contributions</title></rect>
<rect x="48" y="74" width="12" height="12" class="c l0"><title>2024-12-05: 0 contributions</title></rect>
<rect x="48" y="88" width="12" height="12" class="c l0"><title>2024-12-06: 0 contributions</title></rect>
<rect x="48" y="102" width="12" height="12" class="c l0"><title>2024-12-07: 0 contributions</title></rect>
<rect x="62" y="18" width="12" height="12" class="c l0"><title>2024-12-08: 0 contributions</title></rect>
<rect x="62" y="32" width="12" height="12" class="c l0"><title>2024-12-09: 0 contributions</title></rect>
<rect x="62" y="46" width="12" height="12" class="c l0"><title>2024-12-10: 0 contributions</title></rect>
<rect x="62" y="60" width="12" height="12" class="c l0"><title>2024-12-11: 0 contributions</title></rect>
<rect x="62" y="74" width="12" height="12" class="c l0"><title>2024-12-12: 0 contributions</title></rect>
<rect x="62" y="88" width="12" height="12" class="c l0"><title>2024-12-13: 0 contributions</title></rect>
<rect x="62" y="102" width="12" height="12" class="c l0"><title>2024-12-14: 0 contributions</title></rect>
<rect x="76" y="18" width="12" height="12" class="c l0"><title>2024-12-15: 0 contributions</title></rect>
<rect x="76" y="32" width="12" height="12" class="c l1"><title>2024-12-16: 2 contributions</title></rect>
<rect x="76" y="46" width="12" height="12" class="c l1"><title>2024-12-17: 2 contributions</title></rect>
<rect x="76" y="60" width="12" height="12" class="c l1"><title>2024-12-18: 1 contributions</title></rect>
<rect x="76" y="74" width="12" height="12" class="c l0"><title>2024-12-19: 0 contributions</title></rect>
<rect x="76" y="88" width="12" height="12" class="c l0"><title>2024-12-20: 0 contributions</title></rect>
<rect x="76" y="102" width="12" height="12" class="c l0"><title>2024-12-21: 0 contributions</title></rect>
<rect x="90" y="18" width="12" height="12" class="c l0"><title>2024-12-22: 0 contributions</title></rect>
<rect x="90" y="32" width="12" height="12" class="c l1"><title>2024-12-23: 2 contributions</title></rect>
<rect x="90" y="46" width="12" height="12" class="c l0"><title>2024-12-24: 0 contributions</title></rect>
<rect x="90" y="60" width="12" height="12" class="c l0"><title>2024-12-25: 0 contributions</title></rect>
<rect x="90" y="74" width="12" height="12" class="c l0"><title>2024-12-26: 0 contributions</title></rect>
<rect x="90" y="88" width="12" height="12" class="c l0"><title>2024-12-27: 0 contributions</title></rect>
<rect x="90" y="102" width="12" height="12" class="c l0"><title>2024-12-28: 0 contributions</title></rect>
<rect x="104" y="18" width="12" height="12" class="c l0"><title>2024-12-29: 0 contributions</title></rect>
<rect x="104" y="32" width="12" height="12" class="c l0"><title>2024-12-30: 0 contributions</title></rect>
<rect x="104" y="46" width="12" height="12" class="c l0"><title>2024-12-31: 0 contributions</title></rect>
<rect x="104" y="60" width="12" height="12" class="c l0"><title>2025-01-01: 0 contributions</title></rect>
<rect x="104" y="74" width="12" height="12" class="c l0"><title>2025-01-02: 0 contributions</title></rect>
<rect x="104" y="88" width="12" height="12" class="c l0"><title>2025-01-03: 0 contributions</title></rect>
<rect x="104" y="102" width="12" height="12" class="c l0"><title>2025-01-04: 0 contributions</title></rect>
<rect x="118" y="18" width="12" height="12" class="c l0"><title>2025-01-05: 0 contributions</title></rect>
<rect x="118" y="32" width="12" height="12" class="c l0"><title>2025-01-06: 0 contributions</title></rect>
<rect x="118" y="46" width="12" height="12" class="c l0"><title>2025-01-07: 0 contributions</title></rect>
<rect x="118" y="60" width="12" height="12" class="c l0"><title>2025-01-08: 0 contributions</title></rect>
<rect x="118" y="74" width="12" height="12" class="c l0"><title>2025-01-09: 0 contributions</title></rect>
<rect x="118" y="88" width="12" height="12" class="c l0"><title>2025-01-10: 0 contributions</title></rect>
<rect x="118" y="102" width="12" height="12" class="c l0"><title>2025-01-11: 0 contributions</title></rect>
<rect x="132" y="18" width="12" height="12" class="c l0"><title>2025-01-12: 0 contributions</title></rect>
<rect x="132" y="32" width="12" height="12" class="c l1"><title>2025-01-13: 1 contributions</title></rect>
<rect x="132" y="46" width="12" height="12" class="c l0"><title>2025-01-14: 0 contributions</title></rect>
<rect x="132" y="60" width="12" height="12" class="c l0"><title>2025-01-15: 0 contributions</title></rect>
<rect x="132" y="74" width="12" height="12" class="c l0"><title>2025-01-16: 0 contributions</title></rect>
<rect x="132" y="88" width="12" height="12" class="c l1"><title>2025-01-17: 2 contributions</title></rect>
<rect x="132" y="102" width="12" height="12" class="c l0"><title>2025-01-18: 0 contributions</title></rect>
<rect x="146" y="18" width="12" height="12" class="c l0"><title>2025-01-19: 0 contributions</title></rect>
<rect x="146" y="32" width="12" height="12" class="c l0"><title>2025-01-20: 0 contributions</title></rect>
<rect x="146" y="46" width="12" height="12" class="c l0"><title>2025-01-21: 0 contributions</title></rect>
<rect x="146" y="60" width="12" height="12" class="c l0"><title>2025-01-22: 0 contributions</title></rect>
<rect x="146" y="74" width="12" height="12" class="c l0"><title>2025-01-23: 0 contributions</title></rect>
<rect x="146" y="88" width="12" height="12" class="c l0"><title>2025-01-24: 0 contributions</title></rect>
<rect x="146" y="102" width="12" height="12" class="c l0"><title>2025-01-25: 0 contributions</title></rect>
<rect x="160" y="18" width="12" height="12" class="c l0"><title>2025-01-26: 0 contributions</title></rect>
<rect x="160" y="32" width="12" height="12" class="c l0"><title>2025-01-27: 0 contributions</title></rect>
<rect x="160" y="46" width="12" height="12" class="c l0"><title>2025-01-28: 0 contributions</title></rect>
<rect x="160" y="60" width="12" height="12" class="c l0"><title>2025-01-29: 0 contributions</title></rect>
<rect x="160" y="74" width="12" height="12" class="c l0"><title>2025-01-30: 0 contributions</title></rect>
<rect x="160" y="88" width="12" height="12" class="c l0"><title>2025-01-31: 0 contributions</title></rect>
<rect x="160" y="102" width="12" height="12" class="c l0"><title>2025-02-01: 0 contributions</title></rect>
<rect x="174" y="18" width="12" height="12" class="c l0"><title>2025-02-02: 0 contributions</title></rect>
<rect x="174" y="32" width="12" height="12" class="c l0"><title>2025-02-03: 0 contributions</title></rect>
<rect x="174" y="46" width="12" height="12" class="c l0"><title>2025-02-04: 0 contributions</title></rect>
<rect x="174" y="60" width="12" height="12" class="c l0"><title>2025-02-05: 0 contributions</title></rect>
<rect x="174" y="74" width="12" height="12" class="c l0"><title>2025-02-06: 0 contributions</title></rect>
<rect x="174" y="88" width="12" height="12" class="c l0"><title>2025-02-07: 0 contributions</title></rect>
<rect x="174" y="102" width="12" height="12" class="c l1"><title>2025-02-08: 1 contributions</title></rect>
<rect x="188" y="18" width="12" height="12" class="c l2"><title>2025-02-09: 4 contributions</title></rect>
<rect x="188" y="32" width="12" height="12" class="c l0"><title>2025-02-10: 0 contributions</title></rect>
<rect x="188" y="46" width="12" height="12" class="c l0"><title>2025-02-11: 0 contributions</title></rect>
<rect x="188" y="60" width="12" height="12" class="c l0"><title>2025-02-12: 0 contributions</title></rect>
<rect x="188" y="74" width="12" height="12" class="c l0"><title>2025-02-13: 0 contributions</title></rect>
<rect x="188" y="88" width="12" height="12" class="c l0"><title>2025-02-14: 0 contributions</title></rect>
<rect x="188" y="102" width="12" height="12" class="c l0"><title>2025-02-15: 0 contributions</title></rect>
<rect x="202" y="18" width="12" height="12" class="c l0"><title>2025-02-16: 0 contributions</title></rect>
<rect x="202" y="32" width="12" height="12" class="c l0"><title>2025-02-17: 0 contributions</title></rect>
<rect x="202" y="46" width="12" height="12" class="c l0"><title>2025-02-18: 0 contributions</title></rect>
<rect x="202" y="60" width="12" height="12" class="c l0"><title>2025-02-19: 0 contributions</title></rect>
<rect x="202" y="74" width="12" height="12" class="c l0"><title>2025-02-20: 0 contributions</title></rect>
<rect x="202" y="88" width="12" height="12" class="c l1"><title>2025-02-21: 1 contributions</title></rect>
<rect x="202" y="102" width="12" height="12" class="c l0"><title>2025-02-22: 0 contributions</title></rect>
<rect x="216" y="18" width="12" height="12" class="c l0"><title>2025-02-23: 0 contributions</title></rect>
<rect x="216" y="32" width="12" height="12" class="c l0"><title>2025-02-24: 0 contributions</title></rect>
<rect x="216" y="46" width="12" height="12" class="c l0"><title>2025-02-25: 0 contributions</title></rect>
<rect x="216" y="60" width="12" height="12" class="c l0"><title>2025-02-26: 0 contributions</title></rect>
<rect x="216" y="74" width="12" height="12" class="c l1"><title>2025-02-27: 1 contributions</title></rect>
<rect x="216" y="88" width="12" height="12" class="c l0"><title>2025-02-28: 0 contributions</title></rect>
<rect x="216" y="102" width="12" height="12" class="c l0"><title>2025-03-01: 0 contributions</title></rect>
<rect x="230" y="18" width="12" height="12" class="c l0"><title>2025-03-02: 0 contributions</title></rect>
<rect x="230" y="32" width="12" height="12" class="c l0"><title>2025-03-03: 0 contributions</title></rect>
<rect x="230" y="46" width="12" height="12" class="c l0"><title>2025-03-04: 0 contributions</title></rect>
<rect x="230" y="60" width="12" height="12" class="c l1"><title>2025-03-05: 2 contributions</title></rect>
<rect x="230" y="74" width="12" height="12" class="c l0"><title>2025-03-06: 0 contributions</title></rect>
<rect x="230" y="88" width="12" height="12" class="c l1"><title>2025-03-07: 1 contributions</title></rect>
<rect x="230" y="102" width="12" height="12" class="c l0"><title>2025-03-08: 0 contributions</title></rect>
<rect x="244" y="18" width="12" height="12" class="c l0"><title>2025-03-09: 0 contributions</title></rect>
<rect x="244" y="32" width="12" height="12" class="c l0"><title>2025-03-10: 0 contributions</title></rect>
<rect x="244" y="46" width="12" height="12" class="c l0"><title>2025-03-11: 0 contributions</title></rect>
<rect x="244" y="60" width="12" height="12" class="c l0"><title>2025-03-12: 0 contributions</title></rect>
<rect x="244" y="74" width="12" height="12" class="c l1"><title>2025-03-13: 2 contributions</title></rect>
<rect x="244" y="88" width="12" height="12" class="c l0"><title>2025-03-14: 0 contributions</title></rect>
<rect x="244" y="102" width="12" height="12" class="c l0"><title>2025-03-15: 0 contributions</title></rect>
<rect x="258" y="18" width="12" height="12" class="c l0"><title>2025-03-16: 0 contributions</title></rect>
<rect x="258" y="32" width="12" height="12" class="c l0"><title>2025-03-17: 0 contributions</title></rect>
<rect x="258" y="46" width="12" height="12" class="c l0"><title>2025-03-18: 0 contributions</title></rect>
<rect x="258" y="60" width="12" height="12" class="c l2"><title>2025-03-19: 3 contributions</title></rect>
<rect x="258" y="74" width="12" height="12" class="c l0"><title>2025-03-20: 0 contributions</title></rect>
<rect x="258" y="88" width="12" height="12" class="c l0"><title>2025-03-21: 0 contributions</title></rect>
<rect x="258" y="102" width="12" height="12" class="c l0"><title>2025-03-22: 0 contributions</title></rect>
<rect x="272" y="18" width="12" height="12" class="c l0"><title>2025-03-23: 0 contributions</title></rect>
<rect x="272" y="32" width="12" height="12" class="c l0"><title>2025-03-24: 0 contributions</title></rect>
<rect x="272" y="46" width="12" height="12" class="c l0"><title>2025-03-25: 0 contributions</title></rect>
<rect x="272" y="60" width="12" height="12" class="c l0"><title>2025-03-26: 0 contributions</title></rect>
<rect x="272" y="74" width="12" height="12" class="c l2"><title>2025-03-27: 3 contributions</title></rect>
<rect x="272" y="88" width="12" height="12" class="c l1"><title>2025-03-28: 1 contributions</title></rect>
<rect x="272" y="102" width="12" height="12" class="c l0"><title>2025-03-29: 0 contributions</title></rect>
<rect x="286" y="18" width="12" height="12" class="c l0"><title>2025-03-30: 0 contributions</title></rect>
<rect x="286" y="32" width="12" height="12" class="c l1"><title>2025-03-31: 2 contributions</title></rect>
<rect x="286" y="46" width="12" height="12" class="c l3"><title>2025-04-01: 7 contributions</title></rect>
<rect x="286" y="60" width="12" height="12" class="c l3"><title>2025-04-02: 7 contributions</title></rect>
<rect x="286" y="74" width="12" height="12" class="c l1"><title>2025-04-03: 1 contributions</title></rect>
<rect x="286" y="88" width="12" height="12" class="c l1"><title>2025-04-04: 2 contributions</title></rect>
<rect x="286" y="102" width="12" height="12" class="c l0"><title>2025-04-05: 0 contributions</title></rect>
<rect x="300" y="18" width="12" height="12" class="c l0"><title>2025-04-06: 0 contributions</title></rect>
<rect x="300" y="32" width="12" height="12" class="c l0"><title>2025-04-07: 0 contributions</title></rect>
<rect x="300" y="46" width="12" height="12" class="c l0"><title>2025-04-08: 0 contributions</title></rect>
<rect x="300" y="60" width="12" height="12" class="c l0"><title>2025-04-09: 0 contributions</title></rect>
<rect x="300" y="74" width="12" height="12" class="c l1"><title>2025-04-10: 2 contributions</title></rect>
<rect x="300" y="88" width="12" height="12" class="c l3"><title>2025-04-11: 9 contributions</title></rect>
<rect x="300" y="102" width="12" height="12" class="c l0"><title>2025-04-12: 0 contributions</title></rect>
<rect x="314" y="18" width="12" height="12" class="c l0"><title>2025-04-13: 0 contributions</title></rect>
<rect x="314" y="32" width="12" height="12" class="c l0"><title>2025-04-14: 0 contributions</title></rect>
<rect x="314" y="46" width="12" height="12" class="c l0"><title>2025-04-15: 0 contributions</title></rect>
<rect x="314" y="60" width="12" height="12" class="c l0"><title>2025-04-16: 0 contributions</title></rect>
<rect x="314" y="74" width="12" height="12" class="c l2"><title>2025-04-17: 3 contributions</title></rect>
<rect x="314" y="88" width="12" height="12" class="c l1"><title>2025-04-18: 1 contributions</title></rect>
<rect x="314" y="102" width="12" height="12" class="c l0"><title>2025-04-19: 0 contributions</title></rect>
<rect x="328" y="18" width="12" height="12" class="c l0"><title>2025-04-20: 0 contributions</title></rect>
<rect x="328" y="32" width="12" height="12" class="c l0"><title>2025-04-21: 0 contributions</title></rect>
<rect x="328" y="46" width="12" height="12" class="c l0"><title>2025-04-22: 0 contributions</title></rect>
<rect x="328" y="60" width="12" height="12" class="c l0"><title>2025-04-23: 0 contributions</title></rect>
<rect x="328" y="74" width="12" height="12" class="c l0"><title>2025-04-24: 0 contributions</title></rect>
<rect x="328" y="88" width="12" height="12" class="c l0"><title>2025-04-25: 0 contributions</title></rect>
<rect x="328" y="102" width="12" height="12" class="c l0"><title>2025-04-26: 0 contributions</title></rect>
<rect x="342" y="18" width="12" height="12" class="c l0"><title>2025-04-27: 0 contributions</title></rect>
<rect x="342" y="32" width="12" height="12" class="c l0"><title>2025-04-28: 0 contributions</title></rect>
<rect x="342" y="46" width="12" height="12" class="c l0"><title>2025-04-29: 0 contributions</title></rect>
<rect x="342" y="60" width="12" height="12" class="c l0"><title>2025-04-30: 0 contributions</title></rect>
<rect x="342" y="74" width="12" height="12" class="c l3"><title>2025-05-01: 7 contributions</title></rect>
<rect x="342" y="88" width="12" height="12" class="c l0"><title>2025-05-02: 0 contributions</title></rect>
<rect x="342" y="102" width="12" height="12" class="c l0"><title>2025-05-03: 0 contributions</title></rect>
<rect x="356" y="18" width="12" height="12" class="c l0"><title>2025-05-04: 0 contributions</title></rect>
<rect x="356" y="32" width="12" height="12" class="c l0"><title>2025-05-05: 0 contributions</title></rect>
<rect x="356" y="46" width="12" height="12" class="c l0"><title>2025-05-06: 0 contributions</title></rect>
<rect x="356" y="60" width="12" height="12" class="c l0"><title>2025-05-07: 0 contributions</title></rect>
<rect x="356" y="74" width="12" height="12" class="c l0"><title>2025-05-08: 0 contributions</title></rect>
<rect x="356" y="88" width="12" height="12" class="c l1"><title>2025-05-09: 1 contributions</title></rect>
<rect x="356" y="102" width="12" height="12" class="c l0"><title>2025-05-10: 0 contributions</title></rect>
<rect x="370" y="18" width="12" height="12" class="c l0"><title>2025-05-11: 0 contributions</title></rect>
<rect x="370" y="32" width="12" height="12" class="c l0"><title>2025-05-12: 0 contributions</title></rect>
<rect x="370" y="46" width="12" height="12" class="c l0"><title>2025-05-13: 0 contributions</title></rect>
<rect x="370" y="60" width="12" height="12" class="c l0"><title>2025-05-14: 0 contributions</title></rect>
<rect x="370" y="74" width="12" height="12" class="c l0"><title>2025-05-15: 0 contributions</title></rect>
<rect x="370" y="88" width="12" height="12" class="c l0"><title>2025-05-16: 0 contributions</title></rect>
<rect x="370" y="102" width="12" height="12" class="c l0"><title>2025-05-17: 0 contributions</title></rect>
<rect x="384" y="18" width="12" height="12" class="c l0"><title>2025-05-18: 0 contributions</title></rect>
<rect x="384" y="32" width="12" height="12" class="c l0"><title>2025-05-19: 0 contributions</title></rect>
<rect x="384" y="46" width="12" height="12" class="c l0"><title>2025-05-20: 0 contributions</title></rect>
<rect x="384" y="60" width="12" height="12" class="c l0"><title>2025-05-21: 0 contributions</title></rect>
<rect x="384" y="74" width="12" height="12" class="c l1"><title>2025-05-22: 2 contributions</title></rect>
<rect x="384" y="88" width="12" height="12" class="c l1"><title>2025-05-23: 2 contributions</title></rect>
<rect x="384" y="102" width="12" height="12" class="c l0"><title>2025-05-24: 0 contributions</title></rect>
<rect x="398" y="18" width="12" height="12" class="c l0"><title>2025-05-25: 0 contributions</title></rect>
<rect x="398" y="32" width="12" height="12" class="c l0"><title>2025-05-26: 0 contributions</title></rect>
<rect x="398" y="46" width="12" height="12" class="c l0"><title>2025-05-27: 0 contributions</title></rect>
<rect x="398" y="60" width="12" height="12" class="c l0"><title>2025-05-28: 0 contributions</title></rect>
<rect x="398" y="74" width="12" height="12" class="c l1"><title>2025-05-29: 2 contributions</title></rect>
<rect x="398" y="88" width="12" height="12" class="c l0"><title>2025-05-30: 0 contributions</title></rect>
<rect x="398" y="102" width="12" height="12" class="c l0"><title>2025-05-31: 0 contributions</title></rect>
<rect x="412" y="18" width="12" height="12" class="c l0"><title>2025-06-01: 0 contributions</title></rect>
<rect x="412" y="32" width="12" height="12" class="c l0"><title>2025-06-02: 0 contributions</title></rect>
<rect x="412" y="46" width="12" height="12" class="c l2"><title>2025-06-03: 3 contributions</title></rect>
<rect x="412" y="60" width="12" height="12" class="c l2"><title>2025-06-04: 6 contributions</title></rect>
<rect x="412" y="74" width="12" height="12" class="c l0"><title>2025-06-05: 0 contributions</title></rect>
<rect x="412" y="88" width="12" height="12" class="c l0"><title>2025-06-06: 0 contributions</title></rect>
<rect x="412" y="102" width="12" height="12" class="c l0"><title>2025-06-07: 0 contributions</title></rect>
<rect x="426" y="18" width="12" height="12" class="c l0"><title>2025-06-08: 0 contributions</title></rect>
<rect x="426" y="32" width="12" height="12" class="c l0"><title>2025-06-09: 0 contributions</title></rect>
<rect x="426" y="46" width="12" height="12" class="c l1"><title>2025-06-10: 1 contributions</title></rect>
<rect x="426" y="60" width="12" height="12" class="c l0"><title>2025-06-11: 0 contributions</title></rect>
<rect x="426" y="74" width="12" height="12" class="c l1"><title>2025-06-12: 1 contributions</title></rect>
<rect x="426" y="88" width="12" height="12" class="c l1"><title>2025-06-13: 1 contributions</title></rect>
<rect x="426" y="102" width="12" height="12" class="c l0"><title>2025-06-14: 0 contributions</title></rect>
<rect x="440" y="18" width="12" height="12" class="c l0"><title>2025-06-15: 0 contributions</title></rect>
<rect x="440" y="32" width="12" height="12" class="c l1"><title>2025-06-16: 1 contributions</title></rect>
<rect x="440" y="46" width="12" height="12" class="c l0"><title>2025-06-17: 0 contributions</title></rect>
<rect x="440" y="60" width="12" height="12" class="c l1"><title>2025-06-18: 1 contributions</title></rect>
<rect x="440" y="74" width="12" height="12" class="c l1"><title>2025-06-19: 1 contributions</title></rect>
<rect x="440" y="88" width="12" height="12" class="c l1"><title>2025-06-20: 2 contributions</title></rect>
<rect x="440" y="102" width="12" height="12" class="c l0"><title>2025-06-21: 0 contributions</title></rect>
<rect x="454" y="18" width="12" height="12" class="c l0"><title>2025-06-22: 0 contributions</title></rect>
<rect x="454" y="32" width="12" height="12" class="c l1"><title>2025-06-23: 1 contributions</title></rect>
<rect x="454" y="46" width="12" height="12" class="c l1"><title>2025-06-24: 1 contributions</title></rect>
<rect x="454" y="60" width="12" height="12" class="c l1"><title>2025-06-25: 2 contributions</title></rect>
<rect x="454" y="74" width="12" height="12" class="c l0"><title>2025-06-26: 0 contributions</title></rect>
<rect x="454" y="88" width="12" height="12" class="c l0"><title>2025-06-27: 0 contributions</title></rect>
<rect x="454" y="102" width="12" height="12" class="c l0"><title>2025-06-28: 0 contributions</title></rect>
<rect x="468" y="18" width="12" height="12" class="c l0"><title>2025-06-29: 0 contributions</title></rect>
<rect x="468" y="32" width="12" height="12" class="c l2"><title>2025-06-30: 4 contributions</title></rect>
<rect x="468" y="46" width="12" height="12" class="c l0"><title>2025-07-01: 0 contributions</title></rect>
<rect x="468" y="60" width="12" height="12" class="c l1"><title>2025-07-02: 2 contributions</title></rect>
<rect x="468" y="74" width="12" height="12" class="c l3"><title>2025-07-03: 7 contributions</title></rect>
<rect x="468" y="88" width="12" height="12" class="c l0"><title>2025-07-04: 0 contributions</title></rect>
<rect x="468" y="102" width="12" height="12" class="c l0"><title>2025-07-05: 0 contributions</title></rect>
<rect x="482" y="18" width="12" height="12" class="c l0"><title>2025-07-06: 0 contributions</title></rect>
<rect x="482" y="32" width="12" height="12" class="c l2"><title>2025-07-07: 4 contributions</title></rect>
<rect x="482" y="46" width="12" height="12" class="c l1"><title>2025-07-08: 1 contributions</title></rect>
<rect x="482" y="60" width="12" height="12" class="c l2"><title>2025-07-09: 5 contributions</title></rect>
<rect x="482" y="74" width="12" height="12" class="c l1"><title>2025-07-10: 1 contributions</title></rect>
<rect x="482" y="88" width="12" height="12" class="c l2"><title>2025-07-11: 5 contributions</title></rect>
<rect x="482" y="102" width="12" height="12" class="c l0"><title>2025-07-12: 0 contributions</title></rect>
<rect x="496" y="18" width="12" height="12" class="c l0"><title>2025-07-13: 0 contributions</title></rect>
<rect x="496" y="32" width="12" height="12" class="c l0"><title>2025-07-14: 0 contributions</title></rect>
<rect x="496" y="46" width="12" height="12" class="c l0"><title>2025-07-15: 0 contributions</title></rect>
<rect x="496" y="60" width="12" height="12" class="c l2"><title>2025-07-16: 5 contributions</title></rect>
<rect x="496" y="74" width="12" height="12" class="c l1"><title>2025-07-17: 1 contributions</title></rect>
<rect x="496" y="88" width="12" height="12" class="c l0"><title>2025-07-18: 0 contributions</title></rect>
<rect x="496" y="102" width="12" height="12" class="c l0"><title>2025-07-19: 0 contributions</title></rect>
<rect x="510" y="18" width="12" height="12" class="c l0"><title>2025-07-20: 0 contributions</title></rect>
<rect x="510" y="32" width="12" height="12" class="c l0"><title>2025-07-21: 0 contributions</title></rect>
<rect x="510" y="46" width="12" height="12" class="c l0"><title>2025-07-22: 0 contributions</title></rect>
<rect x="510" y="60" width="12" height="12" class="c l0"><title>2025-07-23: 0 contributions</title></rect>
<rect x="510" y="74" width="12" height="12" class="c l0"><title>2025-07-24: 0 contributions</title></rect>
<rect x="510" y="88" width="12" height="12" class="c l0"><title>2025-07-25: 0 contributions</title></rect>
<rect x="510" y="102" width="12" height="12" class="c l0"><title>2025-07-26: 0 contributions</title></rect>
<rect x="524" y="18" width="12" height="12" class="c l0"><title>2025-07-27: 0 contributions</title></rect>
<rect x="524" y="32" width="12" height="12" class="c l1"><title>2025-07-28: 2 contributions</title></rect>
<rect x="524" y="46" width="12" height="12" class="c l2"><title>2025-07-29: 3 contributions</title></rect>
<rect x="524" y="60" width="12" height="12" class="c l2"><title>2025-07-30: 3 contributions</title></rect>
<rect x="524" y="74" width="12" height="12" class="c l2"><title>2025-07-31: 3 contributions</title></rect>
<rect x="524" y="88" width="12" height="12" class="c l1"><title>2025-08-01: 1 contributions</title></rect>
<rect x="524" y="102" width="12" height="12" class="c l0"><title>2025-08-02: 0 contributions</title></rect>
<rect x="538" y="18" width="12" height="12" class="c l0"><title>2025-08-03: 0 contributions</title></rect>
<rect x="538" y="32" width="12" height="12" class="c l0"><title>2025-08-04: 0 contributions</title></rect>
<rect x="538" y="46" width="12" height="12" class="c l0"><title>2025-08-05: 0 contributions</title></rect>
<rect x="538" y="60" width="12" height="12" class="c l1"><title>2025-08-06: 2 contributions</title></rect>
<rect x="538" y="74" width="12" height="12" class="c l1"><title>2025-08-07: 1 contributions</title></rect>
<rect x="538" y="88" width="12" height="12" class="c l1"><title>2025-08-08: 2 contributions</title></rect>
<rect x="538" y="102" width="12" height="12" class="c l0"><title>2025-08-09: 0 contributions</title></rect>
<rect x="552" y="18" width="12" height="12" class="c l0"><title>2025-08-10: 0 contributions</title></rect>
<rect x="552" y="32" width="12" height="12" class="c l2"><title>2025-08-11: 4 contributions</title></rect>
<rect x="552" y="46" width="12" height="12" class="c l2"><title>2025-08-12: 3 contributions</title></rect>
<rect x="552" y="60" width="12" height="12" class="c l0"><title>2025-08-13: 0 contributions</title></rect>
<rect x="552" y="74" width="12" height="12" class="c l1"><title>2025-08-14: 1 contributions</title></rect>
<rect x="552" y="88" width="12" height="12" class="c l0"><title>2025-08-15: 0 contributions</title></rect>
<rect x="552" y="102" width="12" height="12" class="c l0"><title>2025-08-16: 0 contributions</title></rect>
<rect x="566" y="18" width="12" height="12" class="c l0"><title>2025-08-17: 0 contributions</title></rect>
<rect x="566" y="32" width="12" height="12" class="c l0"><title>2025-08-18: 0 contributions</title></rect>
<rect x="566" y="46" width="12" height="12" class="c l3"><title>2025-08-19: 7 contributions</title></rect>
<rect x="566" y="60" width="12" height="12" class="c l1"><title>2025-08-20: 1 contributions</title></rect>
<rect x="566" y="74" width="12" height="12" class="c l2"><title>2025-08-21: 3 contributions</title></rect>
<rect x="566" y="88" width="12" height="12" class="c l1"><title>2025-08-22: 1 contributions</title></rect>
<rect x="566" y="102" width="12" height="12" class="c l0"><title>2025-08-23: 0 contributions</title></rect>
<rect x="580" y="18" width="12" height="12" class="c l0"><title>2025-08-24: 0 contributions</title></rect>
<rect x="580" y="32" width="12" height="12" class="c l1"><title>2025-08-25: 2 contributions</title></rect>
<rect x="580" y="46" width="12" height="12" class="c l2"><title>2025-08-26: 4 contributions</title></rect>
<rect x="580" y="60" width="12" height="12" class="c l2"><title>2025-08-27: 4 contributions</title></rect>
<rect x="580" y="74" width="12" height="12" class="c l2"><title>2025-08-28: 3 contributions</title></rect>
<rect x="580" y="88" width="12" height="12" class="c l2"><title>2025-08-29: 3 contributions</title></rect>
<rect x="580" y="102" width="12" height="12" class="c l0"><title>2025-08-30: 0 contributions</title></rect>
<rect x="594" y="18" width="12" height="12" class="c l0"><title>2025-08-31: 0 contributions</title></rect>
<rect x="594" y="32" width="12" height="12" class="c l1"><title>2025-09-01: 1 contributions</title></rect>
<rect x="594" y="46" width="12" height="12" class="c l1"><title>2025-09-02: 1 contributions</title></rect>
<rect x="594" y="60" width="12" height="12" class="c l2"><title>2025-09-03: 3 contributions</title></rect>
<rect x="594" y="74" width="12" height="12" class="c l1"><title>2025-09-04: 1 contributions</title></rect>
<rect x="594" y="88" width="12" height="12" class="c l0"><title>2025-09-05: 0 contributions</title></rect>
<rect x="594" y="102" width="12" height="12" class="c l0"><title>2025-09-06: 0 contributions</title></rect>
<rect x="608" y="18" width="12" height="12" class="c l0"><title>2025-09-07: 0 contributions</title></rect>
<rect x="608" y="32" width="12" height="12" class="c l1"><title>2025-09-08: 2 contributions</title></rect>
<rect x="608" y="46" width="12" height="12" class="c l1"><title>2025-09-09: 2 contributions</title></rect>
<rect x="608" y="60" width="12" height="12" class="c l1"><title>2025-09-10: 2 contributions</title></rect>
<rect x="608" y="74" width="12" height="12" class="c l0"><title>2025-09-11: 0 contributions</title></rect>
<rect x="608" y="88" width="12" height="12" class="c l0"><title>2025-09-12: 0 contributions</title></rect>
<rect x="608" y="102" width="12" height="12" class="c l0"><title>2025-09-13: 0 contributions</title></rect>
<rect x="622" y="18" width="12" height="12" class="c l0"><title>2025-09-14: 0 contributions</title></rect>
<rect x="622" y="32" width="12" height="12" class="c l0"><title>2025-09-15: 0 contributions</title></rect>
<rect x="622" y="46" width="12" height="12" class="c l3"><title>2025-09-16: 7 contributions</title></rect>
<rect x="622" y="60" width="12" height="12" class="c l0"><title>2025-09-17: 0 contributions</title></rect>
<rect x="622" y="74" width="12" height="12" class="c l1"><title>2025-09-18: 1 contributions</title></rect>
<rect x="622" y="88" width="12" height="12" class="c l2"><title>2025-09-19: 4 contributions</title></rect>
<rect x="622" y="102" width="12" height="12" class="c l0"><title>2025-09-20: 0 contributions</title></rect>
<rect x="636" y="18" width="12" height="12" class="c l0"><title>2025-09-21: 0 contributions</title></rect>
<rect x="636" y="32" width="12" height="12" class="c l3"><title>2025-09-22: 7 contributions</title></rect>
<rect x="636" y="46" width="12" height="12" class="c l0"><title>2025-09-23: 0 contributions</title></rect>
<rect x="636" y="60" width="12" height="12" class="c l1"><title>2025-09-24: 2 contributions</title></rect>
<rect x="636" y="74" width="12" height="12" class="c l1"><title>2025-09-25: 1 contributions</title></rect>
<rect x="636" y="88" width="12" height="12" class="c l0"><title>2025-09-26: 0 contributions</title></rect>
<rect x="636" y="102" width="12" height="12" class="c l0"><title>2025-09-27: 0 contributions</title></rect>
<rect x="650" y="18" width="12" height="12" class="c l0"><title>2025-09-28: 0 contributions</title></rect>
<rect x="650" y="32" width="12" height="12" class="c l0"><title>2025-09-29: 0 contributions</title></rect>
<rect x="650" y="46" width="12" height="12" class="c l0"><title>2025-09-30: 0 contributions</title></rect>
<rect x="650" y="60" width="12" height="12" class="c l2"><title>2025-10-01: 3 contributions</title></rect>
<rect x="650" y="74" width="12" height="12" class="c l0"><title>2025-10-02: 0 contributions</title></rect>
<rect x="650" y="88" width="12" height="12" class="c l0"><title>2025-10-03: 0 contributions</title></rect>
<rect x="650" y="102" width="12" height="12" class="c l0"><title>2025-10-04: 0 contributions</title></rect>
<rect x="664" y="18" width="12" height="12" class="c l0"><title>2025-10-05: 0 contributions</title></rect>
<rect x="664" y="32" width="12" height="12" class="c l0"><title>2025-10-06: 0 contributions</title></rect>
<rect x="664" y="46" width="12" height="12" class="c l2"><title>2025-10-07: 3 contributions</title></rect>
<rect x="664" y="60" width="12" height="12" class="c l0"><title>2025-10-08: 0 contributions</title></rect>
<rect x="664" y="74" width="12" height="12" class="c l0"><title>2025-10-09: 0 contributions</title></rect>
<rect x="664" y="88" width="12" height="12" class="c l0"><title>2025-10-10: 0 contributions</title></rect>
<rect x="664" y="102" width="12" height="12" class="c l0"><title>2025-10-11: 0 contributions</title></rect>
<rect x="678" y="18" width="12" height="12" class="c l0"><title>2025-10-12: 0 contributions</title></rect>
<rect x="678" y="32" width="12" height="12" class="c l2"><title>2025-10-13: 6 contributions</title></rect>
<rect x="678" y="46" width="12" height="12" class="c l0"><title>2025-10-14: 0 contributions</title></rect>
<rect x="678" y="60" width="12" height="12" class="c l0"><title>2025-10-15: 0 contributions</title></rect>
<rect x="678" y="74" width="12" height="12" class="c l0"><title>2025-10-16: 0 contributions</title></rect>
<rect x="678" y="88" width="12" height="12" class="c l4"><title>2025-10-17: 17 contributions</title></rect>
<rect x="678" y="102" width="12" height="12" class="c l0"><title>2025-10-18: 0 contributions</title></rect>
<rect x="692" y="18" width="12" height="12" class="c l0"><title>2025-10-19: 0 contributions</title></rect>
<rect x="692" y="32" width="12" height="12" class="c l0"><title>2025-10-20: 0 contributions</title></rect>
<rect x="692" y="46" width="12" height="12" class="c l0"><title>2025-10-21: 0 contributions</title></rect>
<rect x="692" y="60" width="12" height="12" class="c l0"><title>2025-10-22: 0 contributions</title></rect>
<rect x="692" y="74" width="12" height="12" class="c l0"><title>2025-10-23: 0 contributions</title></rect>
<rect x="692" y="88" width="12" height="12" class="c l0"><title>2025-10-24: 0 contributions</title></rect>
<rect x="692" y="102" width="12" height="12" class="c l0"><title>2025-10-25: 0 contributions</title></rect>
<rect x="706" y="18" width="12" height="12" class="c l0"><title>2025-10-26: 0 contributions</title></rect>
<rect x="706" y="32" width="12" height="12" class="c l0"><title>2025-10-27: 0 contributions</title></rect>
<rect x="706" y="46" width="12" height="12" class="c l0"><title>2025-10-28: 0 contributions</title></rect>
<rect x="706" y="60" width="12" height="12" class="c l0"><title>2025-10-29: 0 contributions</title></rect>
<rect x="706" y="74" width="12" height="12" class="c l3"><title>2025-10-30: 7 contributions</title></rect>
<rect x="706" y="88" width="12" height="12" class="c l2"><title>2025-10-31: 4 contributions</title></rect>
<rect x="706" y="102" width="12" height="12" class="c l0"><title>2025-11-01: 0 contributions</title></rect>
<rect x="720" y="18" width="12" height="12" class="c l0"><title>2025-11-02: 0 contributions</title></rect>
<rect x="720" y="32" width="12" height="12" class="c l2"><title>2025-11-03: 3 contributions</title></rect>
<rect x="720" y="46" width="12" height="12" class="c l1"><title>2025-11-04: 2 contributions</title></rect>
<rect x="720" y="60" width="12" height="12" class="c l0"><title>2025-11-05: 0 contributions</title></rect>
<rect x="720" y="74" width="12" height="12" class="c l1"><title>2025-11-06: 2 contributions</title></rect>
<rect x="720" y="88" width="12" height="12" class="c l0"><title>2025-11-07: 0 contributions</title></rect>
<rect x="720" y="102" width="12" height="12" class="c l0"><title>2025-11-08: 0 contributions</title></rect>
<rect x="734" y="18" width="12" height="12" class="c l0"><title>2025-11-09: 0 contributions</title></rect>
</svg>