<svg xmlns="http://www.w3.org/2000/svg" width="752" height="187" role="img" aria-label="GitHub Activity for hmente">
<defs>
  <filter id="shadow" x="-20%" y="-20%" width="140%" height="140%">
    <feDropShadow dx="0" dy="2" stdDeviation="3" flood-color="#000" flood-opacity="0.15"/>
  </filter>
</defs>
<style>
  :root{ --bg:#ffffff; --fg:#57606a; --muted:#8b949e; --border:#d0d7de; }
  @media (prefers-color-scheme: dark){ :root{ --bg:#0d1117; --fg:#c9d1d9; --muted:#8b949e; --border:#30363d; } }
  .card{ fill:var(--bg); stroke:var(--border); }
  .title{ font:600 14px -apple-system,BlinkMacSystemFont,Segoe UI,Roboto,Helvetica,Arial,sans-serif; fill:var(--fg); }
  .subtitle{ font:400 12px -apple-system,BlinkMacSystemFont,Segoe UI,Roboto,Helvetica,Arial,sans-serif; fill:var(--muted);}
  .lbl{ font:400 10px -apple-system,BlinkMacSystemFont,Segoe UI,Roboto,Helvetica,Arial,sans-serif; fill:var(--muted);}
  .l0{ fill:#ebedf0 } .l1{ fill:#9be9a8 } .l2{ fill:#40c463 } .l3{ fill:#30a14e } .l4{ fill:#216e39 }
  @media (prefers-color-scheme: dark){ .l0{ fill:#161b22 } .l1{ fill:#0e4429 } .l2{ fill:#006d32 } .l3{ fill:#26a641 } .l4{ fill:#39d353 } }
</style>
<rect x="0.5" y="0.5" rx="8" ry="8" width="751" height="186" class="card" filter="url(#shadow)"/>
<text class="title" x="54" y="24">GitHub Activity</text>
<text class="subtitle" x="54" y="40">last 52 weeks — hmente</text>
<text class="lbl" x="54" y="48">Oct</text>
<text class="lbl" x="80" y="48">Nov</text>
<text class="lbl" x="132" y="48">Dec</text>
<text class="lbl" x="197" y="48">Jan</text>
<text class="lbl" x="249" y="48">Feb</text>
<text class="lbl" x="301" y="48">Mar</text>
<text class="lbl" x="366" y="48">Apr</text>
<text class="lbl" x="418" y="48">May</text>
<text class="lbl" x="470" y="48">Jun</text>
<text class="lbl" x="535" y="48">Jul</text>
<text class="lbl" x="587" y="48">Aug</text>
<text class="lbl" x="652" y="48">Sep</text>
<text class="lbl" x="704" y="48">Oct</text>
<text class="lbl" x="14" y="65">Mon</text>
<text class="lbl" x="14" y="91">Wed</text>
<text class="lbl" x="14" y="117">Fri</text>
<rect x="54" y="56" width="11" height="11" rx="2.5" ry="2.5" class="l0"><title>2024-10-20: 0 contributions</title></rect>
<rect x="54" y="69" width="11" height="11" rx="2.5" ry="2.5" class="l0"><title>2024-10-21: 0 contributions</title></rect>
<rect x="54" y="82" width="11" height="11" rx="2.5" ry="2.5" class="l0"><title>2024-10-22: 0 contributions</title></rect>
<rect x="54" y="95" width="11" height="11" rx="2.5" ry="2.5" class="l0"><title>2024-10-23: 0 contributions</title></rect>
<rect x="54" y="108" width="11" height="11" rx="2.5" ry="2.5" class="l0"><title>2024-10-24: 0 contributions</title></rect>
<rect x="54" y="121" width="11" height="11" rx="2.5" ry="2.5" class="l0"><title>2024-10-25: 0 contributions</title></rect>
<rect x="54" y="134" width="11" height="11" rx="2.5" ry="2.5" class="l0"><title>2024-10-26: 0 contributions</title></rect>
<rect x="67" y="56" width="11" height="11" rx="2.5" ry="2.5" class="l0"><title>2024-10-27: 0 contributions</title></rect>
<rect x="67" y="69" width="11" height="11" rx="2.5" ry="2.5" class="l0"><title>2024-10-28: 0 contributions</title></rect>
<rect x="67" y="82" width="11" height="11" rx="2.5" ry="2.5" class="l0"><title>2024-10-29: 0 contributions</title></rect>
<rect x="67" y="95" width="11" height="11" rx="2.5" ry="2.5" class="l1"><title>2024-10-30: 1 contributions</title></rect>
<rect x="67" y="108" width="11" height="11" rx="2.5" ry="2.5" class="l0"><title>2024-10-31: 0 contributions</title></rect>
<rect x="67" y="121" width="11" height="11" rx="2.5" ry="2.5" class="l0"><title>2024-11-01: 0 contributions</title></rect>
<rect x="67" y="134" width="11" height="11" rx="2.5" ry="2.5" class="l0"><title>2024-11-02: 0 contributions</title></rect>
<rect x="80" y="56" width="11" height="11" rx="2.5" ry="2.5" class="l0"><title>2024-11-03: 0 contributions</title></rect>
<rect x="80" y="69" width="11" height="11" rx="2.5" ry="2.5" class="l0"><title>2024-11-04: 0 contributions</title></rect>
<rect x="80" y="82" width="11" height="11" rx="2.5" ry="2.5" class="l1"><title>2024-11-05: 2 contributions</title></rect>
<rect x="80" y="95" width="11" height="11" rx="2.5" ry="2.5" class="l0"><title>2024-11-06: 0 contributions</title></rect>
<rect x="80" y="108" width="11" height="11" rx="2.5" ry="2.5" class="l0"><title>2024-11-07: 0 contributions</title></rect>
<rect x="80" y="121" width="11" height="11" rx="2.5" ry="2.5" class="l0"><title>2024-11-08: 0 contributions</title></rect>
<rect x="80" y="134" width="11" height="11" rx="2.5" ry="2.5" class="l0"><title>2024-11-09: 0 contributions</title></rect>
<rect x="93" y="56" width="11" height="11" rx="2.5" ry="2.5" class="l0"><title>2024-11-10: 0 contributions</title></rect>
<rect x="93" y="69" width="11" height="11" rx="2.5" ry="2.5" class="l2"><title>2024-11-11: 3 contributions</title></rect>
<rect x="93" y="82" width="11" height="11" rx="2.5" ry="2.5" class="l0"><title>2024-11-12: 0 contributions</title></rect>
<rect x="93" y="95" width="11" height="11" rx="2.5" ry="2.5" class="l0"><title>2024-11-13: 0 contributions</title></rect>
<rect x="93" y="108" width="11" height="11" rx="2.5" ry="2.5" class="l0"><title>2024-11-14: 0 contributions</title></rect>
<rect x="93" y="121" width="11" height="11" rx="2.5" ry="2.5" class="l0"><title>2024-11-15: 0 contributions</title></rect>
<rect x="93" y="134" width="11" height="11" rx="2.5" ry="2.5" class="l0"><title>2024-11-16: 0 contributions</title></rect>
<rect x="106" y="56" width="11" height="11" rx="2.5" ry="2.5" class="l0"><title>2024-11-17: 0 contributions</title></rect>
<rect x="106" y="69" width="11" height="11" rx="2.5" ry="2.5" class="l0"><title>2024-11-18: 0 contributions</title></rect>
<rect x="106" y="82" width="11" height="11" rx="2.5" ry="2.5" class="l0"><title>2024-11-19: 0 contributions</title></rect>
<rect x="106" y="95" width="11" height="11" rx="2.5" ry="2.5" class="l0"><title>2024-11-20: 0 contributions</title></rect>
<rect x="106" y="108" width="11" height="11" rx="2.5" ry="2.5" class="l0"><title>2024-11-21: 0 contributions</title></rect>
<rect x="106" y="121" width="11" height="11" rx="2.5" ry="2.5" class="l0"><title>2024-11-22: 0 contributions</title></rect>
<rect x="106" y="134" width="11" height="11" rx="2.5" ry="2.5" class="l0"><title>2024-11-23: 0 contributions</title></rect>
<rect x="119" y="56" width="11" height="11" rx="2.5" ry="2.5" class="l0"><title>2024-11-24: 0 contributions</title></rect>
<rect x="119" y="69" width="11" height="11" rx="2.5" ry="2.5" class="l1"><title>2024-11-25: 1 contributions</title></rect>
<rect x="119" y="82" width="11" height="11" rx="2.5" ry="2.5" class="l0"><title>2024-11-26: 0 contributions</title></rect>
<rect x="119" y="95" width="11" height="11" rx="2.5" ry="2.5" class="l0"><title>2024-11-27: 0 contributions</title></rect>
<rect x="119" y="108" width="11" height="11" rx="2.5" ry="2.5" class="l0"><title>2024-11-28: 0 contributions</title></rect>
<rect x="119" y="121" width="11" height="11" rx="2.5" ry="2.5" class="l0"><title>2024-11-29: 0 contributions</title></rect>
<rect x="119" y="134" width="11" height="11" rx="2.5" ry="2.5" class="l0"><title>2024-11-30: 0 contributions</title></rect>
<rect x="132" y="56" width="11" height="11" rx="2.5" ry="2.5" class="l0"><title>2024-12-01: 0 contributions</title></rect>
<rect x="132" y="69" width="11" height="11" rx="2.5" ry="2.5" class="l0"><title>2024-12-02: 0 contributions</title></rect>
<rect x="132" y="82" width="11" height="11" rx="2.5" ry="2.5" class="l0"><title>2024-12-03: 0 contributions</title></rect>
<rect x="132" y="95" width="11" height="11" rx="2.5" ry="2.5" class="l0"><title>2024-12-04: 0 contributions</title></rect>
<rect x="132" y="108" width="11" height="11" rx="2.5" ry="2.5" class="l0"><title>2024-12-05: 0 contributions</title></rect>
<rect x="132" y="121" width="11" height="11" rx="2.5" ry="2.5" class="l0"><title>2024-12-06: 0 contributions</title></rect>
<rect x="132" y="134" width="11" height="11" rx="2.5" ry="2.5" class="l0"><title>2024-12-07: 0 contributions</title></rect>
<rect x="145" y="56" width="11" height="11" rx="2.5" ry="2.5" class="l0"><title>2024-12-08: 0 contributions</title></rect>
<rect x="145" y="69" width="11" height="11" rx="2.5" ry="2.5" class="l0"><title>2024-12-09: 0 contributions</title></rect>
<rect x="145" y="82" width="11" height="11" rx="2.5" ry="2.5" class="l0"><title>2024-12-10: 0 contributions</title></rect>
<rect x="145" y="95" width="11" height="11" rx="2.5" ry="2.5" class="l0"><title>2024-12-11: 0 contributions</title></rect>
<rect x="145" y="108" width="11" height="11" rx="2.5" ry="2.5" class="l0"><title>2024-12-12: 0 contributions</title></rect>
<rect x="145" y="121" width="11" height="11" rx="2.5" ry="2.5" class="l0"><title>2024-12-13: 0 contributions</title></rect>
<rect x="145" y="134" width="11" height="11" rx="2.5" ry="2.5" class="l0"><title>2024-12-14: 0 contributions</title></rect>
<rect x="158" y="56" width="11" height="11" rx="2.5" ry="2.5" class="l0"><title>2024-12-15: 0 contributions</title></rect>
<rect x="158" y="69" width="11" height="11" rx="2.5" ry="2.5" class="l1"><title>2024-12-16: 2 contributions</title></rect>
<rect x="158" y="82" width="11" height="11" rx="2.5" ry="2.5" class="l1"><title>2024-12-17: 2 contributions</title></rect>
<rect x="158" y="95" width="11" height="11" rx="2.5" ry="2.5" class="l1"><title>2024-12-18: 1 contributions</title></rect>
<rect x="158" y="108" width="11" height="11" rx="2.5" ry="2.5" class="l0"><title>2024-12-19: 0 contributions</title></rect>
<rect x="158" y="121" width="11" height="11" rx="2.5" ry="2.5" class="l0"><title>2024-12-20: 0 contributions</title></rect>
<rect x="158" y="134" width="11" height="11" rx="2.5" ry="2.5" class="l0"><title>2024-12-21: 0 contributions</title></rect>
<rect x="171" y="56" width="11" height="11" rx="2.5" ry="2.5" class="l0"><title>2024-12-22: 0 contributions</title></rect>
<rect x="171" y="69" width="11" height="11" rx="2.5" ry="2.5" class="l1"><title>2024-12-23: 2 contributions</title></rect>
<rect x="171" y="82" width="11" height="11" rx="2.5" ry="2.5" class="l0"><title>2024-12-24: 0 contributions</title></rect>
<rect x="171" y="95" width="11" height="11" rx="2.5" ry="2.5" class="l0"><title>2024-12-25: 0 contributions</title></rect>
<rect x="171" y="108" width="11" height="11" rx="2.5" ry="2.5" class="l0"><title>2024-12-26: 0 contributions</title></rect>
<rect x="171" y="121" width="11" height="11" rx="2.5" ry="2.5" class="l0"><title>2024-12-27: 0 contributions</title></rect>
<rect x="171" y="134" width="11" height="11" rx="2.5" ry="2.5" class="l0"><title>2024-12-28: 0 contributions</title></rect>
<rect x="184" y="56" width="11" height="11" rx="2.5" ry="2.5" class="l0"><title>2024-12-29: 0 contributions</title></rect>
<rect x="184" y="69" width="11" height="11" rx="2.5" ry="2.5" class="l0"><title>2024-12-30: 0 contributions</title></rect>
<rect x="184" y="82" width="11" height="11" rx="2.5" ry="2.5" class="l0"><title>2024-12-31: 0 contributions</title></rect>
<rect x="184" y="95" width="11" height="11" rx="2.5" ry="2.5" class="l0"><title>2025-01-01: 0 contributions</title></rect>
<rect x="184" y="108" width="11" height="11" rx="2.5" ry="2.5" class="l0"><title>2025-01-02: 0 contributions</title></rect>
<rect x="184" y="121" width="11" height="11" rx="2.5" ry="2.5" class="l0"><title>2025-01-03: 0 contributions</title></rect>
<rect x="184" y="134" width="11" height="11" rx="2.5" ry="2.5" class="l0"><title>2025-01-04: 0 contributions</title></rect>
<rect x="197" y="56" width="11" height="11" rx="2.5" ry="2.5" class="l0"><title>2025-01-05: 0 contributions</title></rect>
<rect x="197" y="69" width="11" height="11" rx="2.5" ry="2.5" class="l0"><title>2025-01-06: 0 contributions</title></rect>
<rect x="197" y="82" width="11" height="11" rx="2.5" ry="2.5" class="l0"><title>2025-01-07: 0 contributions</title></rect>
<rect x="197" y="95" width="11" height="11" rx="2.5" ry="2.5" class="l0"><title>2025-01-08: 0 contributions</title></rect>
<rect x="197" y="108" width="11" height="11" rx="2.5" ry="2.5" class="l0"><title>2025-01-09: 0 contributions</title></rect>
<rect x="197" y="121" width="11" height="11" rx="2.5" ry="2.5" class="l0"><title>2025-01-10: 0 contributions</title></rect>
<rect x="197" y="134" width="11" height="11" rx="2.5" ry="2.5" class="l0"><title>2025-01-11: 0 contributions</title></rect>
<rect x="210" y="56" width="11" height="11" rx="2.5" ry="2.5" class="l0"><title>2025-01-12: 0 contributions</title></rect>
<rect x="210" y="69" width="11" height="11" rx="2.5" ry="2.5" class="l1"><title>2025-01-13: 1 contributions</title></rect>
<rect x="210" y="82" width="11" height="11" rx="2.5" ry="2.5" class="l0"><title>2025-01-14: 0 contributions</title></rect>
<rect x="210" y="95" width="11" height="11" rx="2.5" ry="2.5" class="l0"><title>2025-01-15: 0 contributions</title></rect>
<rect x="210" y="108" width="11" height="11" rx="2.5" ry="2.5" class="l0"><title>2025-01-16: 0 contributions</title></rect>
<rect x="210" y="121" width="11" height="11" rx="2.5" ry="2.5" class="l1"><title>2025-01-17: 2 contributions</title></rect>
<rect x="210" y="134" width="11" height="11" rx="2.5" ry="2.5" class="l0"><title>2025-01-18: 0 contributions</title></rect>
<rect x="223" y="56" width="11" height="11" rx="2.5" ry="2.5" class="l0"><title>2025-01-19: 0 contributions</title></rect>
<rect x="223" y="69" width="11" height="11" rx="2.5" ry="2.5" class="l0"><title>2025-01-20: 0 contributions</title></rect>
<rect x="223" y="82" width="11" height="11" rx="2.5" ry="2.5" class="l0"><title>2025-01-21: 0 contributions</title></rect>
<rect x="223" y="95" width="11" height="11" rx="2.5" ry="2.5" class="l0"><title>2025-01-22: 0 contributions</title></rect>
<rect x="223" y="108" width="11" height="11" rx="2.5" ry="2.5" class="l0"><title>2025-01-23: 0 contributions</title></rect>
<rect x="223" y="121" width="11" height="11" rx="2.5" ry="2.5" class="l0"><title>2025-01-24: 0 contributions</title></rect>
<rect x="223" y="134" width="11" height="11" rx="2.5" ry="2.5" class="l0"><title>2025-01-25: 0 contributions</title></rect>
<rect x="236" y="56" width="11" height="11" rx="2.5" ry="2.5" class="l0"><title>2025-01-26: 0 contributions</title></rect>
<rect x="236" y="69" width="11" height="11" rx="2.5" ry="2.5" class="l0"><title>2025-01-27: 0 contributions</title></rect>
<rect x="236" y="82" width="11" height="11" rx="2.5" ry="2.5" class="l0"><title>2025-01-28: 0 contributions</title></rect>
<rect x="236" y="95" width="11" height="11" rx="2.5" ry="2.5" class="l0"><title>2025-01-29: 0 contributions</title></rect>
<rect x="236" y="108" width="11" height="11" rx="2.5" ry="2.5" class="l0"><title>2025-01-30: 0 contributions</title></rect>
<rect x="236" y="121" width="11" height="11" rx="2.5" ry="2.5" class="l0"><title>2025-01-31: 0 contributions</title></rect>
<rect x="236" y="134" width="11" height="11" rx="2.5" ry="2.5" class="l0"><title>2025-02-01: 0 contributions</title></rect>
<rect x="249" y="56" width="11" height="11" rx="2.5" ry="2.5" class="l0"><title>2025-02-02: 0 contributions</title></rect>
<rect x="249" y="69" width="11" height="11" rx="2.5" ry="2.5" class="l0"><title>2025-02-03: 0 contributions</title></rect>
<rect x="249" y="82" width="11" height="11" rx="2.5" ry="2.5" class="l0"><title>2025-02-04: 0 contributions</title></rect>
<rect x="249" y="95" width="11" height="11" rx="2.5" ry="2.5" class="l0"><title>2025-02-05: 0 contributions</title></rect>
<rect x="249" y="108" width="11" height="11" rx="2.5" ry="2.5" class="l0"><title>2025-02-06: 0 contributions</title></rect>
<rect x="249" y="121" width="11" height="11" rx="2.5" ry="2.5" class="l0"><title>2025-02-07: 0 contributions</title></rect>
<rect x="249" y="134" width="11" height="11" rx="2.5" ry="2.5" class="l1"><title>2025-02-08: 1 contributions</title></rect>
<rect x="262" y="56" width="11" height="11" rx="2.5" ry="2.5" class="l2"><title>2025-02-09: 4 contributions</title></rect>
<rect x="262" y="69" width="11" height="11" rx="2.5" ry="2.5" class="l0"><title>2025-02-10: 0 contributions</title></rect>
<rect x="262" y="82" width="11" height="11" rx="2.5" ry="2.5" class="l0"><title>2025-02-11: 0 contributions</title></rect>
<rect x="262" y="95" width="11" height="11" rx="2.5" ry="2.5" class="l0"><title>2025-02-12: 0 contributions</title></rect>
<rect x="262" y="108" width="11" height="11" rx="2.5" ry="2.5" class="l0"><title>2025-02-13: 0 contributions</title></rect>
<rect x="262" y="121" width="11" height="11" rx="2.5" ry="2.5" class="l0"><title>2025-02-14: 0 contributions</title></rect>
<rect x="262" y="134" width="11" height="11" rx="2.5" ry="2.5" class="l0"><title>2025-02-15: 0 contributions</title></rect>
<rect x="275" y="56" width="11" height="11" rx="2.5" ry="2.5" class="l0"><title>2025-02-16: 0 contributions</title></rect>
<rect x="275" y="69" width="11" height="11" rx="2.5" ry="2.5" class="l0"><title>2025-02-17: 0 contributions</title></rect>
<rect x="275" y="82" width="11" height="11" rx="2.5" ry="2.5" class="l0"><title>2025-02-18: 0 contributions</title></rect>
<rect x="275" y="95" width="11" height="11" rx="2.5" ry="2.5" class="l0"><title>2025-02-19: 0 contributions</title></rect>
<rect x="275" y="108" width="11" height="11" rx="2.5" ry="2.5" class="l0"><title>2025-02-20: 0 contributions</title></rect>
<rect x="275" y="121" width="11" height="11" rx="2.5" ry="2.5" class="l1"><title>2025-02-21: 1 contributions</title></rect>
<rect x="275" y="134" width="11" height="11" rx="2.5" ry="2.5" class="l0"><title>2025-02-22: 0 contributions</title></rect>
<rect x="288" y="56" width="11" height="11" rx="2.5" ry="2.5" class="l0"><title>2025-02-23: 0 contributions</title></rect>
<rect x="288" y="69" width="11" height="11" rx="2.5" ry="2.5" class="l0"><title>2025-02-24: 0 contributions</title></rect>
<rect x="288" y="82" width="11" height="11" rx="2.5" ry="2.5" class="l0"><title>2025-02-25: 0 contributions</title></rect>
<rect x="288" y="95" width="11" height="11" rx="2.5" ry="2.5" class="l0"><title>2025-02-26: 0 contributions</title></rect>
<rect x="288" y="108" width="11" height="11" rx="2.5" ry="2.5" class="l1"><title>2025-02-27: 1 contributions</title></rect>
<rect x="288" y="121" width="11" height="11" rx="2.5" ry="2.5" class="l0"><title>2025-02-28: 0 contributions</title></rect>
<rect x="288" y="134" width="11" height="11" rx="2.5" ry="2.5" class="l0"><title>2025-03-01: 0 contributions</title></rect>
<rect x="301" y="56" width="11" height="11" rx="2.5" ry="2.5" class="l0"><title>2025-03-02: 0 contributions</title></rect>
<rect x="301" y="69" width="11" height="11" rx="2.5" ry="2.5" class="l0"><title>2025-03-03: 0 contributions</title></rect>
<rect x="301" y="82" width="11" height="11" rx="2.5" ry="2.5" class="l0"><title>2025-03-04: 0 contributions</title></rect>
<rect x="301" y="95" width="11" height="11" rx="2.5" ry="2.5" class="l1"><title>2025-03-05: 2 contributions</title></rect>
<rect x="301" y="108" width="11" height="11" rx="2.5" ry="2.5" class="l0"><title>2025-03-06: 0 contributions</title></rect>
<rect x="301" y="121" width="11" height="11" rx="2.5" ry="2.5" class="l1"><title>2025-03-07: 1 contributions</title></rect>
<rect x="301" y="134" width="11" height="11" rx="2.5" ry="2.5" class="l0"><title>2025-03-08: 0 contributions</title></rect>
<rect x="314" y="56" width="11" height="11" rx="2.5" ry="2.5" class="l0"><title>2025-03-09: 0 contributions</title></rect>
<rect x="314" y="69" width="11" height="11" rx="2.5" ry="2.5" class="l0"><title>2025-03-10: 0 contributions</title></rect>
<rect x="314" y="82" width="11" height="11" rx="2.5" ry="2.5" class="l0"><title>2025-03-11: 0 contributions</title></rect>
<rect x="314" y="95" width="11" height="11" rx="2.5" ry="2.5" class="l0"><title>2025-03-12: 0 contributions</title></rect>
<rect x="314" y="108" width="11" height="11" rx="2.5" ry="2.5" class="l1"><title>2025-03-13: 2 contributions</title></rect>
<rect x="314" y="121" width="11" height="11" rx="2.5" ry="2.5" class="l0"><title>2025-03-14: 0 contributions</title></rect>
<rect x="314" y="134" width="11" height="11" rx="2.5" ry="2.5" class="l0"><title>2025-03-15: 0 contributions</title></rect>
<rect x="327" y="56" width="11" height="11" rx="2.5" ry="2.5" class="l0"><title>2025-03-16: 0 contributions</title></rect>
<rect x="327" y="69" width="11" height="11" rx="2.5" ry="2.5" class="l0"><title>2025-03-17: 0 contributions</title></rect>
<rect x="327" y="82" width="11" height="11" rx="2.5" ry="2.5" class="l0"><title>2025-03-18: 0 contributions</title></rect>
<rect x="327" y="95" width="11" height="11" rx="2.5" ry="2.5" class="l2"><title>2025-03-19: 3 contributions</title></rect>
<rect x="327" y="108" width="11" height="11" rx="2.5" ry="2.5" class="l0"><title>2025-03-20: 0 contributions</title></rect>
<rect x="327" y="121" width="11" height="11" rx="2.5" ry="2.5" class="l0"><title>2025-03-21: 0 contributions</title></rect>
<rect x="327" y="134" width="11" height="11" rx="2.5" ry="2.5" class="l0"><title>2025-03-22: 0 contributions</title></rect>
<rect x="340" y="56" width="11" height="11" rx="2.5" ry="2.5" class="l0"><title>2025-03-23: 0 contributions</title></rect>
<rect x="340" y="69" width="11" height="11" rx="2.5" ry="2.5" class="l0"><title>2025-03-24: 0 contributions</title></rect>
<rect x="340" y="82" width="11" height="11" rx="2.5" ry="2.5" class="l0"><title>2025-03-25: 0 contributions</title></rect>
<rect x="340" y="95" width="11" height="11" rx="2.5" ry="2.5" class="l0"><title>2025-03-26: 0 contributions</title></rect>
<rect x="340" y="108" width="11" height="11" rx="2.5" ry="2.5" class="l2"><title>2025-03-27: 3 contributions</title></rect>
<rect x="340" y="121" width="11" height="11" rx="2.5" ry="2.5" class="l1"><title>2025-03-28: 1 contributions</title></rect>
<rect x="340" y="134" width="11" height="11" rx="2.5" ry="2.5" class="l0"><title>2025-03-29: 0 contributions</title></rect>
<rect x="353" y="56" width="11" height="11" rx="2.5" ry="2.5" class="l0"><title>2025-03-30: 0 contributions</title></rect>
<rect x="353" y="69" width="11" height="11" rx="2.5" ry="2.5" class="l1"><title>2025-03-31: 2 contributions</title></rect>
<rect x="353" y="82" width="11" height="11" rx="2.5" ry="2.5" class="l3"><title>2025-04-01: 7 contributions</title></rect>
<rect x="353" y="95" width="11" height="11" rx="2.5" ry="2.5" class="l3"><title>2025-04-02: 7 contributions</title></rect>
<rect x="353" y="108" width="11" height="11" rx="2.5" ry="2.5" class="l1"><title>2025-04-03: 1 contributions</title></rect>
<rect x="353" y="121" width="11" height="11" rx="2.5" ry="2.5" class="l1"><title>2025-04-04: 2 contributions</title></rect>
<rect x="353" y="134" width="11" height="11" rx="2.5" ry="2.5" class="l0"><title>2025-04-05: 0 contributions</title></rect>
<rect x="366" y="56" width="11" height="11" rx="2.5" ry="2.5" class="l0"><title>2025-04-06: 0 contributions</title></rect>
<rect x="366" y="69" width="11" height="11" rx="2.5" ry="2.5" class="l0"><title>2025-04-07: 0 contributions</title></rect>
<rect x="366" y="82" width="11" height="11" rx="2.5" ry="2.5" class="l0"><title>2025-04-08: 0 contributions</title></rect>
<rect x="366" y="95" width="11" height="11" rx="2.5" ry="2.5" class="l0"><title>2025-04-09: 0 contributions</title></rect>
<rect x="366" y="108" width="11" height="11" rx="2.5" ry="2.5" class="l1"><title>2025-04-10: 2 contributions</title></rect>
<rect x="366" y="121" width="11" height="11" rx="2.5" ry="2.5" class="l3"><title>2025-04-11: 9 contributions</title></rect>
<rect x="366" y="134" width="11" height="11" rx="2.5" ry="2.5" class="l0"><title>2025-04-12: 0 contributions</title></rect>
<rect x="379" y="56" width="11" height="11" rx="2.5" ry="2.5" class="l0"><title>2025-04-13: 0 contributions</title></rect>
<rect x="379" y="69" width="11" height="11" rx="2.5" ry="2.5" class="l0"><title>2025-04-14: 0 contributions</title></rect>
<rect x="379" y="82" width="11" height="11" rx="2.5" ry="2.5" class="l0"><title>2025-04-15: 0 contributions</title></rect>
<rect x="379" y="95" width="11" height="11" rx="2.5" ry="2.5" class="l0"><title>2025-04-16: 0 contributions</title></rect>
<rect x="379" y="108" width="11" height="11" rx="2.5" ry="2.5" class="l2"><title>2025-04-17: 3 contributions</title></rect>
<rect x="379" y="121" width="11" height="11" rx="2.5" ry="2.5" class="l1"><title>2025-04-18: 1 contributions</title></rect>
<rect x="379" y="134" width="11" height="11" rx="2.5" ry="2.5" class="l0"><title>2025-04-19: 0 contributions</title></rect>
<rect x="392" y="56" width="11" height="11" rx="2.5" ry="2.5" class="l0"><title>2025-04-20: 0 contributions</title></rect>
<rect x="392" y="69" width="11" height="11" rx="2.5" ry="2.5" class="l0"><title>2025-04-21: 0 contributions</title></rect>
<rect x="392" y="82" width="11" height="11" rx="2.5" ry="2.5" class="l0"><title>2025-04-22: 0 contributions</title></rect>
<rect x="392" y="95" width="11" height="11" rx="2.5" ry="2.5" class="l0"><title>2025-04-23: 0 contributions</title></rect>
<rect x="392" y="108" width="11" height="11" rx="2.5" ry="2.5" class="l0"><title>2025-04-24: 0 contributions</title></rect>
<rect x="392" y="121" width="11" height="11" rx="2.5" ry="2.5" class="l0"><title>2025-04-25: 0 contributions</title></rect>
<rect x="392" y="134" width="11" height="11" rx="2.5" ry="2.5" class="l0"><title>2025-04-26: 0 contributions</title></rect>
<rect x="405" y="56" width="11" height="11" rx="2.5" ry="2.5" class="l0"><title>2025-04-27: 0 contributions</title></rect>
<rect x="405" y="69" width="11" height="11" rx="2.5" ry="2.5" class="l0"><title>2025-04-28: 0 contributions</title></rect>
<rect x="405" y="82" width="11" height="11" rx="2.5" ry="2.5" class="l0"><title>2025-04-29: 0 contributions</title></rect>
<rect x="405" y="95" width="11" height="11" rx="2.5" ry="2.5" class="l0"><title>2025-04-30: 0 contributions</title></rect>
<rect x="405" y="108" width="11" height="11" rx="2.5" ry="2.5" class="l3"><title>2025-05-01: 7 contributions</title></rect>
<rect x="405" y="121" width="11" height="11" rx="2.5" ry="2.5" class="l0"><title>2025-05-02: 0 contributions</title></rect>
<rect x="405" y="134" width="11" height="11" rx="2.5" ry="2.5" class="l0"><title>2025-05-03: 0 contributions</title></rect>
<rect x="418" y="56" width="11" height="11" rx="2.5" ry="2.5" class="l0"><title>2025-05-04: 0 contributions</title></rect>
<rect x="418" y="69" width="11" height="11" rx="2.5" ry="2.5" class="l0"><title>2025-05-05: 0 contributions</title></rect>
<rect x="418" y="82" width="11" height="11" rx="2.5" ry="2.5" class="l0"><title>2025-05-06: 0 contributions</title></rect>
<rect x="418" y="95" width="11" height="11" rx="2.5" ry="2.5" class="l0"><title>2025-05-07: 0 contributions</title></rect>
<rect x="418" y="108" width="11" height="11" rx="2.5" ry="2.5" class="l0"><title>2025-05-08: 0 contributions</title></rect>
<rect x="418" y="121" width="11" height="11" rx="2.5" ry="2.5" class="l1"><title>2025-05-09: 1 contributions</title></rect>
<rect x="418" y="134" width="11" height="11" rx="2.5" ry="2.5" class="l0"><title>2025-05-10: 0 contributions</title></rect>
<rect x="431" y="56" width="11" height="11" rx="2.5" ry="2.5" class="l0"><title>2025-05-11: 0 contributions</title></rect>
<rect x="431" y="69" width="11" height="11" rx="2.5" ry="2.5" class="l0"><title>2025-05-12: 0 contributions</title></rect>
<rect x="431" y="82" width="11" height="11" rx="2.5" ry="2.5" class="l0"><title>2025-05-13: 0 contributions</title></rect>
<rect x="431" y="95" width="11" height="11" rx="2.5" ry="2.5" class="l0"><title>2025-05-14: 0 contributions</title></rect>
<rect x="431" y="108" width="11" height="11" rx="2.5" ry="2.5" class="l0"><title>2025-05-15: 0 contributions</title></rect>
<rect x="431" y="121" width="11" height="11" rx="2.5" ry="2.5" class="l0"><title>2025-05-16: 0 contributions</title></rect>
<rect x="431" y="134" width="11" height="11" rx="2.5" ry="2.5" class="l0"><title>2025-05-17: 0 contributions</title></rect>
<rect x="444" y="56" width="11" height="11" rx="2.5" ry="2.5" class="l0"><title>2025-05-18: 0 contributions</title></rect>
<rect x="444" y="69" width="11" height="11" rx="2.5" ry="2.5" class="l0"><title>2025-05-19: 0 contributions</title></rect>
<rect x="444" y="82" width="11" height="11" rx="2.5" ry="2.5" class="l0"><title>2025-05-20: 0 contributions</title></rect>
<rect x="444" y="95" width="11" height="11" rx="2.5" ry="2.5" class="l0"><title>2025-05-21: 0 contributions</title></rect>
<rect x="444" y="108" width="11" height="11" rx="2.5" ry="2.5" class="l1"><title>2025-05-22: 2 contributions</title></rect>
<rect x="444" y="121" width="11" height="11" rx="2.5" ry="2.5" class="l1"><title>2025-05-23: 2 contributions</title></rect>
<rect x="444" y="134" width="11" height="11" rx="2.5" ry="2.5" class="l0"><title>2025-05-24: 0 contributions</title></rect>
<rect x="457" y="56" width="11" height="11" rx="2.5" ry="2.5" class="l0"><title>2025-05-25: 0 contributions</title></rect>
<rect x="457" y="69" width="11" height="11" rx="2.5" ry="2.5" class="l0"><title>2025-05-26: 0 contributions</title></rect>
<rect x="457" y="82" width="11" height="11" rx="2.5" ry="2.5" class="l0"><title>2025-05-27: 0 contributions</title></rect>
<rect x="457" y="95" width="11" height="11" rx="2.5" ry="2.5" class="l0"><title>2025-05-28: 0 contributions</title></rect>
<rect x="457" y="108" width="11" height="11" rx="2.5" ry="2.5" class="l1"><title>2025-05-29: 2 contributions</title></rect>
<rect x="457" y="121" width="11" height="11" rx="2.5" ry="2.5" class="l0"><title>2025-05-30: 0 contributions</title></rect>
<rect x="457" y="134" width="11" height="11" rx="2.5" ry="2.5" class="l0"><title>2025-05-31: 0 contributions</title></rect>
<rect x="470" y="56" width="11" height="11" rx="2.5" ry="2.5" class="l0"><title>2025-06-01: 0 contributions</title></rect>
<rect x="470" y="69" width="11" height="11" rx="2.5" ry="2.5" class="l0"><title>2025-06-02: 0 contributions</title></rect>
<rect x="470" y="82" width="11" height="11" rx="2.5" ry="2.5" class="l2"><title>2025-06-03: 3 contributions</title></rect>
<rect x="470" y="95" width="11" height="11" rx="2.5" ry="2.5" class="l3"><title>2025-06-04: 6 contributions</title></rect>
<rect x="470" y="108" width="11" height="11" rx="2.5" ry="2.5" class="l0"><title>2025-06-05: 0 contributions</title></rect>
<rect x="470" y="121" width="11" height="11" rx="2.5" ry="2.5" class="l0"><title>2025-06-06: 0 contributions</title></rect>
<rect x="470" y="134" width="11" height="11" rx="2.5" ry="2.5" class="l0"><title>2025-06-07: 0 contributions</title></rect>
<rect x="483" y="56" width="11" height="11" rx="2.5" ry="2.5" class="l0"><title>2025-06-08: 0 contributions</title></rect>
<rect x="483" y="69" width="11" height="11" rx="2.5" ry="2.5" class="l0"><title>2025-06-09: 0 contributions</title></rect>
<rect x="483" y="82" width="11" height="11" rx="2.5" ry="2.5" class="l1"><title>2025-06-10: 1 contributions</title></rect>
<rect x="483" y="95" width="11" height="11" rx="2.5" ry="2.5" class="l0"><title>2025-06-11: 0 contributions</title></rect>
<rect x="483" y="108" width="11" height="11" rx="2.5" ry="2.5" class="l1"><title>2025-06-12: 1 contributions</title></rect>
<rect x="483" y="121" width="11" height="11" rx="2.5" ry="2.5" class="l1"><title>2025-06-13: 1 contributions</title></rect>
<rect x="483" y="134" width="11" height="11" rx="2.5" ry="2.5" class="l0"><title>2025-06-14: 0 contributions</title></rect>
<rect x="496" y="56" width="11" height="11" rx="2.5" ry="2.5" class="l0"><title>2025-06-15: 0 contributions</title></rect>
<rect x="496" y="69" width="11" height="11" rx="2.5" ry="2.5" class="l1"><title>2025-06-16: 1 contributions</title></rect>
<rect x="496" y="82" width="11" height="11" rx="2.5" ry="2.5" class="l0"><title>2025-06-17: 0 contributions</title></rect>
<rect x="496" y="95" width="11" height="11" rx="2.5" ry="2.5" class="l1"><title>2025-06-18: 1 contributions</title></rect>
<rect x="496" y="108" width="11" height="11" rx="2.5" ry="2.5" class="l1"><title>2025-06-19: 1 contributions</title></rect>
<rect x="496" y="121" width="11" height="11" rx="2.5" ry="2.5" class="l1"><title>2025-06-20: 2 contributions</title></rect>
<rect x="496" y="134" width="11" height="11" rx="2.5" ry="2.5" class="l0"><title>2025-06-21: 0 contributions</title></rect>
<rect x="509" y="56" width="11" height="11" rx="2.5" ry="2.5" class="l0"><title>2025-06-22: 0 contributions</title></rect>
<rect x="509" y="69" width="11" height="11" rx="2.5" ry="2.5" class="l1"><title>2025-06-23: 1 contributions</title></rect>
<rect x="509" y="82" width="11" height="11" rx="2.5" ry="2.5" class="l1"><title>2025-06-24: 1 contributions</title></rect>
<rect x="509" y="95" width="11" height="11" rx="2.5" ry="2.5" class="l1"><title>2025-06-25: 2 contributions</title></rect>
<rect x="509" y="108" width="11" height="11" rx="2.5" ry="2.5" class="l0"><title>2025-06-26: 0 contributions</title></rect>
<rect x="509" y="121" width="11" height="11" rx="2.5" ry="2.5" class="l0"><title>2025-06-27: 0 contributions</title></rect>
<rect x="509" y="134" width="11" height="11" rx="2.5" ry="2.5" class="l0"><title>2025-06-28: 0 contributions</title></rect>
<rect x="522" y="56" width="11" height="11" rx="2.5" ry="2.5" class="l0"><title>2025-06-29: 0 contributions</title></rect>
<rect x="522" y="69" width="11" height="11" rx="2.5" ry="2.5" class="l2"><title>2025-06-30: 4 contributions</title></rect>
<rect x="522" y="82" width="11" height="11" rx="2.5" ry="2.5" class="l0"><title>2025-07-01: 0 contributions</title></rect>
<rect x="522" y="95" width="11" height="11" rx="2.5" ry="2.5" class="l1"><title>2025-07-02: 2 contributions</title></rect>
<rect x="522" y="108" width="11" height="11" rx="2.5" ry="2.5" class="l3"><title>2025-07-03: 7 contributions</title></rect>
<rect x="522" y="121" width="11" height="11" rx="2.5" ry="2.5" class="l0"><title>2025-07-04: 0 contributions</title></rect>
<rect x="522" y="134" width="11" height="11" rx="2.5" ry="2.5" class="l0"><title>2025-07-05: 0 contributions</title></rect>
<rect x="535" y="56" width="11" height="11" rx="2.5" ry="2.5" class="l0"><title>2025-07-06: 0 contributions</title></rect>
<rect x="535" y="69" width="11" height="11" rx="2.5" ry="2.5" class="l2"><title>2025-07-07: 4 contributions</title></rect>
<rect x="535" y="82" width="11" height="11" rx="2.5" ry="2.5" class="l1"><title>2025-07-08: 1 contributions</title></rect>
<rect x="535" y="95" width="11" height="11" rx="2.5" ry="2.5" class="l2"><title>2025-07-09: 5 contributions</title></rect>
<rect x="535" y="108" width="11" height="11" rx="2.5" ry="2.5" class="l1"><title>2025-07-10: 1 contributions</title></rect>
<rect x="535" y="121" width="11" height="11" rx="2.5" ry="2.5" class="l2"><title>2025-07-11: 5 contributions</title></rect>
<rect x="535" y="134" width="11" height="11" rx="2.5" ry="2.5" class="l0"><title>2025-07-12: 0 contributions</title></rect>
<rect x="548" y="56" width="11" height="11" rx="2.5" ry="2.5" class="l0"><title>2025-07-13: 0 contributions</title></rect>
<rect x="548" y="69" width="11" height="11" rx="2.5" ry="2.5" class="l0"><title>2025-07-14: 0 contributions</title></rect>
<rect x="548" y="82" width="11" height="11" rx="2.5" ry="2.5" class="l0"><title>2025-07-15: 0 contributions</title></rect>
<rect x="548" y="95" width="11" height="11" rx="2.5" ry="2.5" class="l2"><title>2025-07-16: 5 contributions</title></rect>
<rect x="548" y="108" width="11" height="11" rx="2.5" ry="2.5" class="l1"><title>2025-07-17: 1 contributions</title></rect>
<rect x="548" y="121" width="11" height="11" rx="2.5" ry="2.5" class="l0"><title>2025-07-18: 0 contributions</title></rect>
<rect x="548" y="134" width="11" height="11" rx="2.5" ry="2.5" class="l0"><title>2025-07-19: 0 contributions</title></rect>
<rect x="561" y="56" width="11" height="11" rx="2.5" ry="2.5" class="l0"><title>2025-07-20: 0 contributions</title></rect>
<rect x="561" y="69" width="11" height="11" rx="2.5" ry="2.5" class="l0"><title>2025-07-21: 0 contributions</title></rect>
<rect x="561" y="82" width="11" height="11" rx="2.5" ry="2.5" class="l0"><title>2025-07-22: 0 contributions</title></rect>
<rect x="561" y="95" width="11" height="11" rx="2.5" ry="2.5" class="l0"><title>2025-07-23: 0 contributions</title></rect>
<rect x="561" y="108" width="11" height="11" rx="2.5" ry="2.5" class="l0"><title>2025-07-24: 0 contributions</title></rect>
<rect x="561" y="121" width="11" height="11" rx="2.5" ry="2.5" class="l0"><title>2025-07-25: 0 contributions</title></rect>
<rect x="561" y="134" width="11" height="11" rx="2.5" ry="2.5" class="l0"><title>2025-07-26: 0 contributions</title></rect>
<rect x="574" y="56" width="11" height="11" rx="2.5" ry="2.5" class="l0"><title>2025-07-27: 0 contributions</title></rect>
<rect x="574" y="69" width="11" height="11" rx="2.5" ry="2.5" class="l1"><title>2025-07-28: 2 contributions</title></rect>
<rect x="574" y="82" width="11" height="11" rx="2.5" ry="2.5" class="l2"><title>2025-07-29: 3 contributions</title></rect>
<rect x="574" y="95" width="11" height="11" rx="2.5" ry="2.5" class="l2"><title>2025-07-30: 3 contributions</title></rect>
<rect x="574" y="108" width="11" height="11" rx="2.5" ry="2.5" class="l2"><title>2025-07-31: 3 contributions</title></rect>
<rect x="574" y="121" width="11" height="11" rx="2.5" ry="2.5" class="l1"><title>2025-08-01: 1 contributions</title></rect>
<rect x="574" y="134" width="11" height="11" rx="2.5" ry="2.5" class="l0"><title>2025-08-02: 0 contributions</title></rect>
<rect x="587" y="56" width="11" height="11" rx="2.5" ry="2.5" class="l0"><title>2025-08-03: 0 contributions</title></rect>
<rect x="587" y="69" width="11" height="11" rx="2.5" ry="2.5" class="l0"><title>2025-08-04: 0 contributions</title></rect>
<rect x="587" y="82" width="11" height="11" rx="2.5" ry="2.5" class="l0"><title>2025-08-05: 0 contributions</title></rect>
<rect x="587" y="95" width="11" height="11" rx="2.5" ry="2.5" class="l1"><title>2025-08-06: 2 contributions</title></rect>
<rect x="587" y="108" width="11" height="11" rx="2.5" ry="2.5" class="l1"><title>2025-08-07: 1 contributions</title></rect>
<rect x="587" y="121" width="11" height="11" rx="2.5" ry="2.5" class="l1"><title>2025-08-08: 2 contributions</title></rect>
<rect x="587" y="134" width="11" height="11" rx="2.5" ry="2.5" class="l0"><title>2025-08-09: 0 contributions</title></rect>
<rect x="600" y="56" width="11" height="11" rx="2.5" ry="2.5" class="l0"><title>2025-08-10: 0 contributions</title></rect>
<rect x="600" y="69" width="11" height="11" rx="2.5" ry="2.5" class="l2"><title>2025-08-11: 4 contributions</title></rect>
<rect x="600" y="82" width="11" height="11" rx="2.5" ry="2.5" class="l2"><title>2025-08-12: 3 contributions</title></rect>
<rect x="600" y="95" width="11" height="11" rx="2.5" ry="2.5" class="l0"><title>2025-08-13: 0 contributions</title></rect>
<rect x="600" y="108" width="11" height="11" rx="2.5" ry="2.5" class="l1"><title>2025-08-14: 1 contributions</title></rect>
<rect x="600" y="121" width="11" height="11" rx="2.5" ry="2.5" class="l0"><title>2025-08-15: 0 contributions</title></rect>
<rect x="600" y="134" width="11" height="11" rx="2.5" ry="2.5" class="l0"><title>2025-08-16: 0 contributions</title></rect>
<rect x="613" y="56" width="11" height="11" rx="2.5" ry="2.5" class="l0"><title>2025-08-17: 0 contributions</title></rect>
<rect x="613" y="69" width="11" height="11" rx="2.5" ry="2.5" class="l0"><title>2025-08-18: 0 contributions</title></rect>
<rect x="613" y="82" width="11" height="11" rx="2.5" ry="2.5" class="l3"><title>2025-08-19: 7 contributions</title></rect>
<rect x="613" y="95" width="11" height="11" rx="2.5" ry="2.5" class="l1"><title>2025-08-20: 1 contributions</title></rect>
<rect x="613" y="108" width="11" height="11" rx="2.5" ry="2.5" class="l2"><title>2025-08-21: 3 contributions</title></rect>
<rect x="613" y="121" width="11" height="11" rx="2.5" ry="2.5" class="l1"><title>2025-08-22: 1 contributions</title></rect>
<rect x="613" y="134" width="11" height="11" rx="2.5" ry="2.5" class="l0"><title>2025-08-23: 0 contributions</title></rect>
<rect x="626" y="56" width="11" height="11" rx="2.5" ry="2.5" class="l0"><title>2025-08-24: 0 contributions</title></rect>
<rect x="626" y="69" width="11" height="11" rx="2.5" ry="2.5" class="l1"><title>2025-08-25: 2 contributions</title></rect>
<rect x="626" y="82" width="11" height="11" rx="2.5" ry="2.5" class="l2"><title>2025-08-26: 4 contributions</title></rect>
<rect x="626" y="95" width="11" height="11" rx="2.5" ry="2.5" class="l2"><title>2025-08-27: 4 contributions</title></rect>
<rect x="626" y="108" width="11" height="11" rx="2.5" ry="2.5" class="l2"><title>2025-08-28: 3 contributions</title></rect>
<rect x="626" y="121" width="11" height="11" rx="2.5" ry="2.5" class="l2"><title>2025-08-29: 3 contributions</title></rect>
<rect x="626" y="134" width="11" height="11" rx="2.5" ry="2.5" class="l0"><title>2025-08-30: 0 contributions</title></rect>
<rect x="639" y="56" width="11" height="11" rx="2.5" ry="2.5" class="l0"><title>2025-08-31: 0 contributions</title></rect>
<rect x="639" y="69" width="11" height="11" rx="2.5" ry="2.5" class="l1"><title>2025-09-01: 1 contributions</title></rect>
<rect x="639" y="82" width="11" height="11" rx="2.5" ry="2.5" class="l1"><title>2025-09-02: 1 contributions</title></rect>
<rect x="639" y="95" width="11" height="11" rx="2.5" ry="2.5" class="l2"><title>2025-09-03: 3 contributions</title></rect>
<rect x="639" y="108" width="11" height="11" rx="2.5" ry="2.5" class="l1"><title>2025-09-04: 1 contributions</title></rect>
<rect x="639" y="121" width="11" height="11" rx="2.5" ry="2.5" class="l0"><title>2025-09-05: 0 contributions</title></rect>
<rect x="639" y="134" width="11" height="11" rx="2.5" ry="2.5" class="l0"><title>2025-09-06: 0 contributions</title></rect>
<rect x="652" y="56" width="11" height="11" rx="2.5" ry="2.5" class="l0"><title>2025-09-07: 0 contributions</title></rect>
<rect x="652" y="69" width="11" height="11" rx="2.5" ry="2.5" class="l1"><title>2025-09-08: 2 contributions</title></rect>
<rect x="652" y="82" width="11" height="11" rx="2.5" ry="2.5" class="l1"><title>2025-09-09: 2 contributions</title></rect>
<rect x="652" y="95" width="11" height="11" rx="2.5" ry="2.5" class="l1"><title>2025-09-10: 2 contributions</title></rect>
<rect x="652" y="108" width="11" height="11" rx="2.5" ry="2.5" class="l0"><title>2025-09-11: 0 contributions</title></rect>
<rect x="652" y="121" width="11" height="11" rx="2.5" ry="2.5" class="l0"><title>2025-09-12: 0 contributions</title></rect>
<rect x="652" y="134" width="11" height="11" rx="2.5" ry="2.5" class="l0"><title>2025-09-13: 0 contributions</title></rect>
<rect x="665" y="56" width="11" height="11" rx="2.5" ry="2.5" class="l0"><title>2025-09-14: 0 contributions</title></rect>
<rect x="665" y="69" width="11" height="11" rx="2.5" ry="2.5" class="l0"><title>2025-09-15: 0 contributions</title></rect>
<rect x="665" y="82" width="11" height="11" rx="2.5" ry="2.5" class="l3"><title>2025-09-16: 7 contributions</title></rect>
<rect x="665" y="95" width="11" height="11" rx="2.5" ry="2.5" class="l0"><title>2025-09-17: 0 contributions</title></rect>
<rect x="665" y="108" width="11" height="11" rx="2.5" ry="2.5" class="l1"><title>2025-09-18: 1 contributions</title></rect>
<rect x="665" y="121" width="11" height="11" rx="2.5" ry="2.5" class="l2"><title>2025-09-19: 3 contributions</title></rect>
<rect x="665" y="134" width="11" height="11" rx="2.5" ry="2.5" class="l0"><title>2025-09-20: 0 contributions</title></rect>
<rect x="678" y="56" width="11" height="11" rx="2.5" ry="2.5" class="l0"><title>2025-09-21: 0 contributions</title></rect>
<rect x="678" y="69" width="11" height="11" rx="2.5" ry="2.5" class="l3"><title>2025-09-22: 7 contributions</title></rect>
<rect x="678" y="82" width="11" height="11" rx="2.5" ry="2.5" class="l0"><title>2025-09-23: 0 contributions</title></rect>
<rect x="678" y="95" width="11" height="11" rx="2.5" ry="2.5" class="l1"><title>2025-09-24: 2 contributions</title></rect>
<rect x="678" y="108" width="11" height="11" rx="2.5" ry="2.5" class="l1"><title>2025-09-25: 1 contributions</title></rect>
<rect x="678" y="121" width="11" height="11" rx="2.5" ry="2.5" class="l0"><title>2025-09-26: 0 contributions</title></rect>
<rect x="678" y="134" width="11" height="11" rx="2.5" ry="2.5" class="l0"><title>2025-09-27: 0 contributions</title></rect>
<rect x="691" y="56" width="11" height="11" rx="2.5" ry="2.5" class="l0"><title>2025-09-28: 0 contributions</title></rect>
<rect x="691" y="69" width="11" height="11" rx="2.5" ry="2.5" class="l0"><title>2025-09-29: 0 contributions</title></rect>
<rect x="691" y="82" width="11" height="11" rx="2.5" ry="2.5" class="l0"><title>2025-09-30: 0 contributions</title></rect>
<rect x="691" y="95" width="11" height="11" rx="2.5" ry="2.5" class="l2"><title>2025-10-01: 3 contributions</title></rect>
<rect x="691" y="108" width="11" height="11" rx="2.5" ry="2.5" class="l0"><title>2025-10-02: 0 contributions</title></rect>
<rect x="691" y="121" width="11" height="11" rx="2.5" ry="2.5" class="l0"><title>2025-10-03: 0 contributions</title></rect>
<rect x="691" y="134" width="11" height="11" rx="2.5" ry="2.5" class="l0"><title>2025-10-04: 0 contributions</title></rect>
<rect x="704" y="56" width="11" height="11" rx="2.5" ry="2.5" class="l0"><title>2025-10-05: 0 contributions</title></rect>
<rect x="704" y="69" width="11" height="11" rx="2.5" ry="2.5" class="l0"><title>2025-10-06: 0 contributions</title></rect>
<rect x="704" y="82" width="11" height="11" rx="2.5" ry="2.5" class="l2"><title>2025-10-07: 3 contributions</title></rect>
<rect x="704" y="95" width="11" height="11" rx="2.5" ry="2.5" class="l0"><title>2025-10-08: 0 contributions</title></rect>
<rect x="704" y="108" width="11" height="11" rx="2.5" ry="2.5" class="l0"><title>2025-10-09: 0 contributions</title></rect>
<rect x="704" y="121" width="11" height="11" rx="2.5" ry="2.5" class="l0"><title>2025-10-10: 0 contributions</title></rect>
<rect x="704" y="134" width="11" height="11" rx="2.5" ry="2.5" class="l0"><title>2025-10-11: 0 contributions</title></rect>
<rect x="717" y="56" width="11" height="11" rx="2.5" ry="2.5" class="l0"><title>2025-10-12: 0 contributions</title></rect>
<rect x="717" y="69" width="11" height="11" rx="2.5" ry="2.5" class="l3"><title>2025-10-13: 6 contributions</title></rect>
<rect x="717" y="82" width="11" height="11" rx="2.5" ry="2.5" class="l0"><title>2025-10-14: 0 contributions</title></rect>
<rect x="717" y="95" width="11" height="11" rx="2.5" ry="2.5" class="l0"><title>2025-10-15: 0 contributions</title></rect>
<rect x="717" y="108" width="11" height="11" rx="2.5" ry="2.5" class="l0"><title>2025-10-16: 0 contributions</title></rect>
<rect x="717" y="121" width="11" height="11" rx="2.5" ry="2.5" class="l4"><title>2025-10-17: 15 contributions</title></rect>
<text class="lbl" x="629" y="169">Less</text>
<rect x="665" y="161" width="11" height="11" rx="2.5" ry="2.5" class="l0"/>
<rect x="678" y="161" width="11" height="11" rx="2.5" ry="2.5" class="l1"/>
<rect x="691" y="161" width="11" height="11" rx="2.5" ry="2.5" class="l2"/>
<rect x="704" y="161" width="11" height="11" rx="2.5" ry="2.5" class="l3"/>
<rect x="717" y="161" width="11" height="11" rx="2.5" ry="2.5" class="l4"/>
<text class="lbl" x="734" y="169">More</text>
</svg>