<svg xmlns="http://www.w3.org/2000/svg" width="782" height="144">
<style>.lbl{font:10px -apple-system,BlinkMacSystemFont,Segoe UI,Roboto,Helvetica,Arial,sans-serif; fill:#57606a}</style>
<rect x="0" y="0" width="782" height="144" fill="white"/>
<text class="lbl" x="40" y="16">GitHub Activity — last 52 weeks (hmente)</text>
<text class="lbl" x="40" y="18">Oct</text>
<text class="lbl" x="68" y="18">Nov</text>
<text class="lbl" x="124" y="18">Dec</text>
<text class="lbl" x="194" y="18">Jan</text>
<text class="lbl" x="250" y="18">Feb</text>
<text class="lbl" x="306" y="18">Mar</text>
<text class="lbl" x="376" y="18">Apr</text>
<text class="lbl" x="432" y="18">May</text>
<text class="lbl" x="488" y="18">Jun</text>
<text class="lbl" x="558" y="18">Jul</text>
<text class="lbl" x="614" y="18">Aug</text>
<text class="lbl" x="684" y="18">Sep</text>
<text class="lbl" x="740" y="18">Oct</text>
<text class="lbl" x="8" y="33">Mon</text>
<text class="lbl" x="8" y="47">Tue</text>
<text class="lbl" x="8" y="61">Wed</text>
<text class="lbl" x="8" y="75">Thu</text>
<text class="lbl" x="8" y="89">Fri</text>
<text class="lbl" x="8" y="103">Sat</text>
<text class="lbl" x="8" y="117">Sun</text>
<rect x="40" y="24" width="12" height="12" rx="2" ry="2" fill="#ebedf0"><title>2024-10-20: 0 contributions</title></rect>
<rect x="40" y="38" width="12" height="12" rx="2" ry="2" fill="#ebedf0"><title>2024-10-21: 0 contributions</title></rect>
<rect x="40" y="52" width="12" height="12" rx="2" ry="2" fill="#ebedf0"><title>2024-10-22: 0 contributions</title></rect>
<rect x="40" y="66" width="12" height="12" rx="2" ry="2" fill="#ebedf0"><title>2024-10-23: 0 contributions</title></rect>
<rect x="40" y="80" width="12" height="12" rx="2" ry="2" fill="#ebedf0"><title>2024-10-24: 0 contributions</title></rect>
<rect x="40" y="94" width="12" height="12" rx="2" ry="2" fill="#ebedf0"><title>2024-10-25: 0 contributions</title></rect>
<rect x="40" y="108" width="12" height="12" rx="2" ry="2" fill="#ebedf0"><title>2024-10-26: 0 contributions</title></rect>
<rect x="54" y="24" width="12" height="12" rx="2" ry="2" fill="#ebedf0"><title>2024-10-27: 0 contributions</title></rect>
<rect x="54" y="38" width="12" height="12" rx="2" ry="2" fill="#ebedf0"><title>2024-10-28: 0 contributions</title></rect>
<rect x="54" y="52" width="12" height="12" rx="2" ry="2" fill="#ebedf0"><title>2024-10-29: 0 contributions</title></rect>
<rect x="54" y="66" width="12" height="12" rx="2" ry="2" fill="#9be9a8"><title>2024-10-30: 1 contributions</title></rect>
<rect x="54" y="80" width="12" height="12" rx="2" ry="2" fill="#ebedf0"><title>2024-10-31: 0 contributions</title></rect>
<rect x="54" y="94" width="12" height="12" rx="2" ry="2" fill="#ebedf0"><title>2024-11-01: 0 contributions</title></rect>
<rect x="54" y="108" width="12" height="12" rx="2" ry="2" fill="#ebedf0"><title>2024-11-02: 0 contributions</title></rect>
<rect x="68" y="24" width="12" height="12" rx="2" ry="2" fill="#ebedf0"><title>2024-11-03: 0 contributions</title></rect>
<rect x="68" y="38" width="12" height="12" rx="2" ry="2" fill="#ebedf0"><title>2024-11-04: 0 contributions</title></rect>
<rect x="68" y="52" width="12" height="12" rx="2" ry="2" fill="#40c463"><title>2024-11-05: 2 contributions</title></rect>
<rect x="68" y="66" width="12" height="12" rx="2" ry="2" fill="#ebedf0"><title>2024-11-06: 0 contributions</title></rect>
<rect x="68" y="80" width="12" height="12" rx="2" ry="2" fill="#ebedf0"><title>2024-11-07: 0 contributions</title></rect>
<rect x="68" y="94" width="12" height="12" rx="2" ry="2" fill="#ebedf0"><title>2024-11-08: 0 contributions</title></rect>
<rect x="68" y="108" width="12" height="12" rx="2" ry="2" fill="#ebedf0"><title>2024-11-09: 0 contributions</title></rect>
<rect x="82" y="24" width="12" height="12" rx="2" ry="2" fill="#ebedf0"><title>2024-11-10: 0 contributions</title></rect>
<rect x="82" y="38" width="12" height="12" rx="2" ry="2" fill="#40c463"><title>2024-11-11: 3 contributions</title></rect>
<rect x="82" y="52" width="12" height="12" rx="2" ry="2" fill="#ebedf0"><title>2024-11-12: 0 contributions</title></rect>
<rect x="82" y="66" width="12" height="12" rx="2" ry="2" fill="#ebedf0"><title>2024-11-13: 0 contributions</title></rect>
<rect x="82" y="80" width="12" height="12" rx="2" ry="2" fill="#ebedf0"><title>2024-11-14: 0 contributions</title></rect>
<rect x="82" y="94" width="12" height="12" rx="2" ry="2" fill="#ebedf0"><title>2024-11-15: 0 contributions</title></rect>
<rect x="82" y="108" width="12" height="12" rx="2" ry="2" fill="#ebedf0"><title>2024-11-16: 0 contributions</title></rect>
<rect x="96" y="24" width="12" height="12" rx="2" ry="2" fill="#ebedf0"><title>2024-11-17: 0 contributions</title></rect>
<rect x="96" y="38" width="12" height="12" rx="2" ry="2" fill="#ebedf0"><title>2024-11-18: 0 contributions</title></rect>
<rect x="96" y="52" width="12" height="12" rx="2" ry="2" fill="#ebedf0"><title>2024-11-19: 0 contributions</title></rect>
<rect x="96" y="66" width="12" height="12" rx="2" ry="2" fill="#ebedf0"><title>2024-11-20: 0 contributions</title></rect>
<rect x="96" y="80" width="12" height="12" rx="2" ry="2" fill="#ebedf0"><title>2024-11-21: 0 contributions</title></rect>
<rect x="96" y="94" width="12" height="12" rx="2" ry="2" fill="#ebedf0"><title>2024-11-22: 0 contributions</title></rect>
<rect x="96" y="108" width="12" height="12" rx="2" ry="2" fill="#ebedf0"><title>2024-11-23: 0 contributions</title></rect>
<rect x="110" y="24" width="12" height="12" rx="2" ry="2" fill="#ebedf0"><title>2024-11-24: 0 contributions</title></rect>
<rect x="110" y="38" width="12" height="12" rx="2" ry="2" fill="#9be9a8"><title>2024-11-25: 1 contributions</title></rect>
<rect x="110" y="52" width="12" height="12" rx="2" ry="2" fill="#ebedf0"><title>2024-11-26: 0 contributions</title></rect>
<rect x="110" y="66" width="12" height="12" rx="2" ry="2" fill="#ebedf0"><title>2024-11-27: 0 contributions</title></rect>
<rect x="110" y="80" width="12" height="12" rx="2" ry="2" fill="#ebedf0"><title>2024-11-28: 0 contributions</title></rect>
<rect x="110" y="94" width="12" height="12" rx="2" ry="2" fill="#ebedf0"><title>2024-11-29: 0 contributions</title></rect>
<rect x="110" y="108" width="12" height="12" rx="2" ry="2" fill="#ebedf0"><title>2024-11-30: 0 contributions</title></rect>
<rect x="124" y="24" width="12" height="12" rx="2" ry="2" fill="#ebedf0"><title>2024-12-01: 0 contributions</title></rect>
<rect x="124" y="38" width="12" height="12" rx="2" ry="2" fill="#ebedf0"><title>2024-12-02: 0 contributions</title></rect>
<rect x="124" y="52" width="12" height="12" rx="2" ry="2" fill="#ebedf0"><title>2024-12-03: 0 contributions</title></rect>
<rect x="124" y="66" width="12" height="12" rx="2" ry="2" fill="#ebedf0"><title>2024-12-04: 0 contributions</title></rect>
<rect x="124" y="80" width="12" height="12" rx="2" ry="2" fill="#ebedf0"><title>2024-12-05: 0 contributions</title></rect>
<rect x="124" y="94" width="12" height="12" rx="2" ry="2" fill="#ebedf0"><title>2024-12-06: 0 contributions</title></rect>
<rect x="124" y="108" width="12" height="12" rx="2" ry="2" fill="#ebedf0"><title>2024-12-07: 0 contributions</title></rect>
<rect x="138" y="24" width="12" height="12" rx="2" ry="2" fill="#ebedf0"><title>2024-12-08: 0 contributions</title></rect>
<rect x="138" y="38" width="12" height="12" rx="2" ry="2" fill="#ebedf0"><title>2024-12-09: 0 contributions</title></rect>
<rect x="138" y="52" width="12" height="12" rx="2" ry="2" fill="#ebedf0"><title>2024-12-10: 0 contributions</title></rect>
<rect x="138" y="66" width="12" height="12" rx="2" ry="2" fill="#ebedf0"><title>2024-12-11: 0 contributions</title></rect>
<rect x="138" y="80" width="12" height="12" rx="2" ry="2" fill="#ebedf0"><title>2024-12-12: 0 contributions</title></rect>
<rect x="138" y="94" width="12" height="12" rx="2" ry="2" fill="#ebedf0"><title>2024-12-13: 0 contributions</title></rect>
<rect x="138" y="108" width="12" height="12" rx="2" ry="2" fill="#ebedf0"><title>2024-12-14: 0 contributions</title></rect>
<rect x="152" y="24" width="12" height="12" rx="2" ry="2" fill="#ebedf0"><title>2024-12-15: 0 contributions</title></rect>
<rect x="152" y="38" width="12" height="12" rx="2" ry="2" fill="#40c463"><title>2024-12-16: 2 contributions</title></rect>
<rect x="152" y="52" width="12" height="12" rx="2" ry="2" fill="#40c463"><title>2024-12-17: 2 contributions</title></rect>
<rect x="152" y="66" width="12" height="12" rx="2" ry="2" fill="#9be9a8"><title>2024-12-18: 1 contributions</title></rect>
<rect x="152" y="80" width="12" height="12" rx="2" ry="2" fill="#ebedf0"><title>2024-12-19: 0 contributions</title></rect>
<rect x="152" y="94" width="12" height="12" rx="2" ry="2" fill="#ebedf0"><title>2024-12-20: 0 contributions</title></rect>
<rect x="152" y="108" width="12" height="12" rx="2" ry="2" fill="#ebedf0"><title>2024-12-21: 0 contributions</title></rect>
<rect x="166" y="24" width="12" height="12" rx="2" ry="2" fill="#ebedf0"><title>2024-12-22: 0 contributions</title></rect>
<rect x="166" y="38" width="12" height="12" rx="2" ry="2" fill="#40c463"><title>2024-12-23: 2 contributions</title></rect>
<rect x="166" y="52" width="12" height="12" rx="2" ry="2" fill="#ebedf0"><title>2024-12-24: 0 contributions</title></rect>
<rect x="166" y="66" width="12" height="12" rx="2" ry="2" fill="#ebedf0"><title>2024-12-25: 0 contributions</title></rect>
<rect x="166" y="80" width="12" height="12" rx="2" ry="2" fill="#ebedf0"><title>2024-12-26: 0 contributions</title></rect>
<rect x="166" y="94" width="12" height="12" rx="2" ry="2" fill="#ebedf0"><title>2024-12-27: 0 contributions</title></rect>
<rect x="166" y="108" width="12" height="12" rx="2" ry="2" fill="#ebedf0"><title>2024-12-28: 0 contributions</title></rect>
<rect x="180" y="24" width="12" height="12" rx="2" ry="2" fill="#ebedf0"><title>2024-12-29: 0 contributions</title></rect>
<rect x="180" y="38" width="12" height="12" rx="2" ry="2" fill="#ebedf0"><title>2024-12-30: 0 contributions</title></rect>
<rect x="180" y="52" width="12" height="12" rx="2" ry="2" fill="#ebedf0"><title>2024-12-31: 0 contributions</title></rect>
<rect x="180" y="66" width="12" height="12" rx="2" ry="2" fill="#ebedf0"><title>2025-01-01: 0 contributions</title></rect>
<rect x="180" y="80" width="12" height="12" rx="2" ry="2" fill="#ebedf0"><title>2025-01-02: 0 contributions</title></rect>
<rect x="180" y="94" width="12" height="12" rx="2" ry="2" fill="#ebedf0"><title>2025-01-03: 0 contributions</title></rect>
<rect x="180" y="108" width="12" height="12" rx="2" ry="2" fill="#ebedf0"><title>2025-01-04: 0 contributions</title></rect>
<rect x="194" y="24" width="12" height="12" rx="2" ry="2" fill="#ebedf0"><title>2025-01-05: 0 contributions</title></rect>
<rect x="194" y="38" width="12" height="12" rx="2" ry="2" fill="#ebedf0"><title>2025-01-06: 0 contributions</title></rect>
<rect x="194" y="52" width="12" height="12" rx="2" ry="2" fill="#ebedf0"><title>2025-01-07: 0 contributions</title></rect>
<rect x="194" y="66" width="12" height="12" rx="2" ry="2" fill="#ebedf0"><title>2025-01-08: 0 contributions</title></rect>
<rect x="194" y="80" width="12" height="12" rx="2" ry="2" fill="#ebedf0"><title>2025-01-09: 0 contributions</title></rect>
<rect x="194" y="94" width="12" height="12" rx="2" ry="2" fill="#ebedf0"><title>2025-01-10: 0 contributions</title></rect>
<rect x="194" y="108" width="12" height="12" rx="2" ry="2" fill="#ebedf0"><title>2025-01-11: 0 contributions</title></rect>
<rect x="208" y="24" width="12" height="12" rx="2" ry="2" fill="#ebedf0"><title>2025-01-12: 0 contributions</title></rect>
<rect x="208" y="38" width="12" height="12" rx="2" ry="2" fill="#9be9a8"><title>2025-01-13: 1 contributions</title></rect>
<rect x="208" y="52" width="12" height="12" rx="2" ry="2" fill="#ebedf0"><title>2025-01-14: 0 contributions</title></rect>
<rect x="208" y="66" width="12" height="12" rx="2" ry="2" fill="#ebedf0"><title>2025-01-15: 0 contributions</title></rect>
<rect x="208" y="80" width="12" height="12" rx="2" ry="2" fill="#ebedf0"><title>2025-01-16: 0 contributions</title></rect>
<rect x="208" y="94" width="12" height="12" rx="2" ry="2" fill="#40c463"><title>2025-01-17: 2 contributions</title></rect>
<rect x="208" y="108" width="12" height="12" rx="2" ry="2" fill="#ebedf0"><title>2025-01-18: 0 contributions</title></rect>
<rect x="222" y="24" width="12" height="12" rx="2" ry="2" fill="#ebedf0"><title>2025-01-19: 0 contributions</title></rect>
<rect x="222" y="38" width="12" height="12" rx="2" ry="2" fill="#ebedf0"><title>2025-01-20: 0 contributions</title></rect>
<rect x="222" y="52" width="12" height="12" rx="2" ry="2" fill="#ebedf0"><title>2025-01-21: 0 contributions</title></rect>
<rect x="222" y="66" width="12" height="12" rx="2" ry="2" fill="#ebedf0"><title>2025-01-22: 0 contributions</title></rect>
<rect x="222" y="80" width="12" height="12" rx="2" ry="2" fill="#ebedf0"><title>2025-01-23: 0 contributions</title></rect>
<rect x="222" y="94" width="12" height="12" rx="2" ry="2" fill="#ebedf0"><title>2025-01-24: 0 contributions</title></rect>
<rect x="222" y="108" width="12" height="12" rx="2" ry="2" fill="#ebedf0"><title>2025-01-25: 0 contributions</title></rect>
<rect x="236" y="24" width="12" height="12" rx="2" ry="2" fill="#ebedf0"><title>2025-01-26: 0 contributions</title></rect>
<rect x="236" y="38" width="12" height="12" rx="2" ry="2" fill="#ebedf0"><title>2025-01-27: 0 contributions</title></rect>
<rect x="236" y="52" width="12" height="12" rx="2" ry="2" fill="#ebedf0"><title>2025-01-28: 0 contributions</title></rect>
<rect x="236" y="66" width="12" height="12" rx="2" ry="2" fill="#ebedf0"><title>2025-01-29: 0 contributions</title></rect>
<rect x="236" y="80" width="12" height="12" rx="2" ry="2" fill="#ebedf0"><title>2025-01-30: 0 contributions</title></rect>
<rect x="236" y="94" width="12" height="12" rx="2" ry="2" fill="#ebedf0"><title>2025-01-31: 0 contributions</title></rect>
<rect x="236" y="108" width="12" height="12" rx="2" ry="2" fill="#ebedf0"><title>2025-02-01: 0 contributions</title></rect>
<rect x="250" y="24" width="12" height="12" rx="2" ry="2" fill="#ebedf0"><title>2025-02-02: 0 contributions</title></rect>
<rect x="250" y="38" width="12" height="12" rx="2" ry="2" fill="#ebedf0"><title>2025-02-03: 0 contributions</title></rect>
<rect x="250" y="52" width="12" height="12" rx="2" ry="2" fill="#ebedf0"><title>2025-02-04: 0 contributions</title></rect>
<rect x="250" y="66" width="12" height="12" rx="2" ry="2" fill="#ebedf0"><title>2025-02-05: 0 contributions</title></rect>
<rect x="250" y="80" width="12" height="12" rx="2" ry="2" fill="#ebedf0"><title>2025-02-06: 0 contributions</title></rect>
<rect x="250" y="94" width="12" height="12" rx="2" ry="2" fill="#ebedf0"><title>2025-02-07: 0 contributions</title></rect>
<rect x="250" y="108" width="12" height="12" rx="2" ry="2" fill="#9be9a8"><title>2025-02-08: 1 contributions</title></rect>
<rect x="264" y="24" width="12" height="12" rx="2" ry="2" fill="#30a14e"><title>2025-02-09: 4 contributions</title></rect>
<rect x="264" y="38" width="12" height="12" rx="2" ry="2" fill="#ebedf0"><title>2025-02-10: 0 contributions</title></rect>
<rect x="264" y="52" width="12" height="12" rx="2" ry="2" fill="#ebedf0"><title>2025-02-11: 0 contributions</title></rect>
<rect x="264" y="66" width="12" height="12" rx="2" ry="2" fill="#ebedf0"><title>2025-02-12: 0 contributions</title></rect>
<rect x="264" y="80" width="12" height="12" rx="2" ry="2" fill="#ebedf0"><title>2025-02-13: 0 contributions</title></rect>
<rect x="264" y="94" width="12" height="12" rx="2" ry="2" fill="#ebedf0"><title>2025-02-14: 0 contributions</title></rect>
<rect x="264" y="108" width="12" height="12" rx="2" ry="2" fill="#ebedf0"><title>2025-02-15: 0 contributions</title></rect>
<rect x="278" y="24" width="12" height="12" rx="2" ry="2" fill="#ebedf0"><title>2025-02-16: 0 contributions</title></rect>
<rect x="278" y="38" width="12" height="12" rx="2" ry="2" fill="#ebedf0"><title>2025-02-17: 0 contributions</title></rect>
<rect x="278" y="52" width="12" height="12" rx="2" ry="2" fill="#ebedf0"><title>2025-02-18: 0 contributions</title></rect>
<rect x="278" y="66" width="12" height="12" rx="2" ry="2" fill="#ebedf0"><title>2025-02-19: 0 contributions</title></rect>
<rect x="278" y="80" width="12" height="12" rx="2" ry="2" fill="#ebedf0"><title>2025-02-20: 0 contributions</title></rect>
<rect x="278" y="94" width="12" height="12" rx="2" ry="2" fill="#9be9a8"><title>2025-02-21: 1 contributions</title></rect>
<rect x="278" y="108" width="12" height="12" rx="2" ry="2" fill="#ebedf0"><title>2025-02-22: 0 contributions</title></rect>
<rect x="292" y="24" width="12" height="12" rx="2" ry="2" fill="#ebedf0"><title>2025-02-23: 0 contributions</title></rect>
<rect x="292" y="38" width="12" height="12" rx="2" ry="2" fill="#ebedf0"><title>2025-02-24: 0 contributions</title></rect>
<rect x="292" y="52" width="12" height="12" rx="2" ry="2" fill="#ebedf0"><title>2025-02-25: 0 contributions</title></rect>
<rect x="292" y="66" width="12" height="12" rx="2" ry="2" fill="#ebedf0"><title>2025-02-26: 0 contributions</title></rect>
<rect x="292" y="80" width="12" height="12" rx="2" ry="2" fill="#9be9a8"><title>2025-02-27: 1 contributions</title></rect>
<rect x="292" y="94" width="12" height="12" rx="2" ry="2" fill="#ebedf0"><title>2025-02-28: 0 contributions</title></rect>
<rect x="292" y="108" width="12" height="12" rx="2" ry="2" fill="#ebedf0"><title>2025-03-01: 0 contributions</title></rect>
<rect x="306" y="24" width="12" height="12" rx="2" ry="2" fill="#ebedf0"><title>2025-03-02: 0 contributions</title></rect>
<rect x="306" y="38" width="12" height="12" rx="2" ry="2" fill="#ebedf0"><title>2025-03-03: 0 contributions</title></rect>
<rect x="306" y="52" width="12" height="12" rx="2" ry="2" fill="#ebedf0"><title>2025-03-04: 0 contributions</title></rect>
<rect x="306" y="66" width="12" height="12" rx="2" ry="2" fill="#40c463"><title>2025-03-05: 2 contributions</title></rect>
<rect x="306" y="80" width="12" height="12" rx="2" ry="2" fill="#ebedf0"><title>2025-03-06: 0 contributions</title></rect>
<rect x="306" y="94" width="12" height="12" rx="2" ry="2" fill="#9be9a8"><title>2025-03-07: 1 contributions</title></rect>
<rect x="306" y="108" width="12" height="12" rx="2" ry="2" fill="#ebedf0"><title>2025-03-08: 0 contributions</title></rect>
<rect x="320" y="24" width="12" height="12" rx="2" ry="2" fill="#ebedf0"><title>2025-03-09: 0 contributions</title></rect>
<rect x="320" y="38" width="12" height="12" rx="2" ry="2" fill="#ebedf0"><title>2025-03-10: 0 contributions</title></rect>
<rect x="320" y="52" width="12" height="12" rx="2" ry="2" fill="#ebedf0"><title>2025-03-11: 0 contributions</title></rect>
<rect x="320" y="66" width="12" height="12" rx="2" ry="2" fill="#ebedf0"><title>2025-03-12: 0 contributions</title></rect>
<rect x="320" y="80" width="12" height="12" rx="2" ry="2" fill="#40c463"><title>2025-03-13: 2 contributions</title></rect>
<rect x="320" y="94" width="12" height="12" rx="2" ry="2" fill="#ebedf0"><title>2025-03-14: 0 contributions</title></rect>
<rect x="320" y="108" width="12" height="12" rx="2" ry="2" fill="#ebedf0"><title>2025-03-15: 0 contributions</title></rect>
<rect x="334" y="24" width="12" height="12" rx="2" ry="2" fill="#ebedf0"><title>2025-03-16: 0 contributions</title></rect>
<rect x="334" y="38" width="12" height="12" rx="2" ry="2" fill="#ebedf0"><title>2025-03-17: 0 contributions</title></rect>
<rect x="334" y="52" width="12" height="12" rx="2" ry="2" fill="#ebedf0"><title>2025-03-18: 0 contributions</title></rect>
<rect x="334" y="66" width="12" height="12" rx="2" ry="2" fill="#40c463"><title>2025-03-19: 3 contributions</title></rect>
<rect x="334" y="80" width="12" height="12" rx="2" ry="2" fill="#ebedf0"><title>2025-03-20: 0 contributions</title></rect>
<rect x="334" y="94" width="12" height="12" rx="2" ry="2" fill="#ebedf0"><title>2025-03-21: 0 contributions</title></rect>
<rect x="334" y="108" width="12" height="12" rx="2" ry="2" fill="#ebedf0"><title>2025-03-22: 0 contributions</title></rect>
<rect x="348" y="24" width="12" height="12" rx="2" ry="2" fill="#ebedf0"><title>2025-03-23: 0 contributions</title></rect>
<rect x="348" y="38" width="12" height="12" rx="2" ry="2" fill="#ebedf0"><title>2025-03-24: 0 contributions</title></rect>
<rect x="348" y="52" width="12" height="12" rx="2" ry="2" fill="#ebedf0"><title>2025-03-25: 0 contributions</title></rect>
<rect x="348" y="66" width="12" height="12" rx="2" ry="2" fill="#ebedf0"><title>2025-03-26: 0 contributions</title></rect>
<rect x="348" y="80" width="12" height="12" rx="2" ry="2" fill="#40c463"><title>2025-03-27: 3 contributions</title></rect>
<rect x="348" y="94" width="12" height="12" rx="2" ry="2" fill="#9be9a8"><title>2025-03-28: 1 contributions</title></rect>
<rect x="348" y="108" width="12" height="12" rx="2" ry="2" fill="#ebedf0"><title>2025-03-29: 0 contributions</title></rect>
<rect x="362" y="24" width="12" height="12" rx="2" ry="2" fill="#ebedf0"><title>2025-03-30: 0 contributions</title></rect>
<rect x="362" y="38" width="12" height="12" rx="2" ry="2" fill="#40c463"><title>2025-03-31: 2 contributions</title></rect>
<rect x="362" y="52" width="12" height="12" rx="2" ry="2" fill="#216e39"><title>2025-04-01: 7 contributions</title></rect>
<rect x="362" y="66" width="12" height="12" rx="2" ry="2" fill="#216e39"><title>2025-04-02: 7 contributions</title></rect>
<rect x="362" y="80" width="12" height="12" rx="2" ry="2" fill="#9be9a8"><title>2025-04-03: 1 contributions</title></rect>
<rect x="362" y="94" width="12" height="12" rx="2" ry="2" fill="#40c463"><title>2025-04-04: 2 contributions</title></rect>
<rect x="362" y="108" width="12" height="12" rx="2" ry="2" fill="#ebedf0"><title>2025-04-05: 0 contributions</title></rect>
<rect x="376" y="24" width="12" height="12" rx="2" ry="2" fill="#ebedf0"><title>2025-04-06: 0 contributions</title></rect>
<rect x="376" y="38" width="12" height="12" rx="2" ry="2" fill="#ebedf0"><title>2025-04-07: 0 contributions</title></rect>
<rect x="376" y="52" width="12" height="12" rx="2" ry="2" fill="#ebedf0"><title>2025-04-08: 0 contributions</title></rect>
<rect x="376" y="66" width="12" height="12" rx="2" ry="2" fill="#ebedf0"><title>2025-04-09: 0 contributions</title></rect>
<rect x="376" y="80" width="12" height="12" rx="2" ry="2" fill="#40c463"><title>2025-04-10: 2 contributions</title></rect>
<rect x="376" y="94" width="12" height="12" rx="2" ry="2" fill="#216e39"><title>2025-04-11: 9 contributions</title></rect>
<rect x="376" y="108" width="12" height="12" rx="2" ry="2" fill="#ebedf0"><title>2025-04-12: 0 contributions</title></rect>
<rect x="390" y="24" width="12" height="12" rx="2" ry="2" fill="#ebedf0"><title>2025-04-13: 0 contributions</title></rect>
<rect x="390" y="38" width="12" height="12" rx="2" ry="2" fill="#ebedf0"><title>2025-04-14: 0 contributions</title></rect>
<rect x="390" y="52" width="12" height="12" rx="2" ry="2" fill="#ebedf0"><title>2025-04-15: 0 contributions</title></rect>
<rect x="390" y="66" width="12" height="12" rx="2" ry="2" fill="#ebedf0"><title>2025-04-16: 0 contributions</title></rect>
<rect x="390" y="80" width="12" height="12" rx="2" ry="2" fill="#40c463"><title>2025-04-17: 3 contributions</title></rect>
<rect x="390" y="94" width="12" height="12" rx="2" ry="2" fill="#9be9a8"><title>2025-04-18: 1 contributions</title></rect>
<rect x="390" y="108" width="12" height="12" rx="2" ry="2" fill="#ebedf0"><title>2025-04-19: 0 contributions</title></rect>
<rect x="404" y="24" width="12" height="12" rx="2" ry="2" fill="#ebedf0"><title>2025-04-20: 0 contributions</title></rect>
<rect x="404" y="38" width="12" height="12" rx="2" ry="2" fill="#ebedf0"><title>2025-04-21: 0 contributions</title></rect>
<rect x="404" y="52" width="12" height="12" rx="2" ry="2" fill="#ebedf0"><title>2025-04-22: 0 contributions</title></rect>
<rect x="404" y="66" width="12" height="12" rx="2" ry="2" fill="#ebedf0"><title>2025-04-23: 0 contributions</title></rect>
<rect x="404" y="80" width="12" height="12" rx="2" ry="2" fill="#ebedf0"><title>2025-04-24: 0 contributions</title></rect>
<rect x="404" y="94" width="12" height="12" rx="2" ry="2" fill="#ebedf0"><title>2025-04-25: 0 contributions</title></rect>
<rect x="404" y="108" width="12" height="12" rx="2" ry="2" fill="#ebedf0"><title>2025-04-26: 0 contributions</title></rect>
<rect x="418" y="24" width="12" height="12" rx="2" ry="2" fill="#ebedf0"><title>2025-04-27: 0 contributions</title></rect>
<rect x="418" y="38" width="12" height="12" rx="2" ry="2" fill="#ebedf0"><title>2025-04-28: 0 contributions</title></rect>
<rect x="418" y="52" width="12" height="12" rx="2" ry="2" fill="#ebedf0"><title>2025-04-29: 0 contributions</title></rect>
<rect x="418" y="66" width="12" height="12" rx="2" ry="2" fill="#ebedf0"><title>2025-04-30: 0 contributions</title></rect>
<rect x="418" y="80" width="12" height="12" rx="2" ry="2" fill="#216e39"><title>2025-05-01: 7 contributions</title></rect>
<rect x="418" y="94" width="12" height="12" rx="2" ry="2" fill="#ebedf0"><title>2025-05-02: 0 contributions</title></rect>
<rect x="418" y="108" width="12" height="12" rx="2" ry="2" fill="#ebedf0"><title>2025-05-03: 0 contributions</title></rect>
<rect x="432" y="24" width="12" height="12" rx="2" ry="2" fill="#ebedf0"><title>2025-05-04: 0 contributions</title></rect>
<rect x="432" y="38" width="12" height="12" rx="2" ry="2" fill="#ebedf0"><title>2025-05-05: 0 contributions</title></rect>
<rect x="432" y="52" width="12" height="12" rx="2" ry="2" fill="#ebedf0"><title>2025-05-06: 0 contributions</title></rect>
<rect x="432" y="66" width="12" height="12" rx="2" ry="2" fill="#ebedf0"><title>2025-05-07: 0 contributions</title></rect>
<rect x="432" y="80" width="12" height="12" rx="2" ry="2" fill="#ebedf0"><title>2025-05-08: 0 contributions</title></rect>
<rect x="432" y="94" width="12" height="12" rx="2" ry="2" fill="#9be9a8"><title>2025-05-09: 1 contributions</title></rect>
<rect x="432" y="108" width="12" height="12" rx="2" ry="2" fill="#ebedf0"><title>2025-05-10: 0 contributions</title></rect>
<rect x="446" y="24" width="12" height="12" rx="2" ry="2" fill="#ebedf0"><title>2025-05-11: 0 contributions</title></rect>
<rect x="446" y="38" width="12" height="12" rx="2" ry="2" fill="#ebedf0"><title>2025-05-12: 0 contributions</title></rect>
<rect x="446" y="52" width="12" height="12" rx="2" ry="2" fill="#ebedf0"><title>2025-05-13: 0 contributions</title></rect>
<rect x="446" y="66" width="12" height="12" rx="2" ry="2" fill="#ebedf0"><title>2025-05-14: 0 contributions</title></rect>
<rect x="446" y="80" width="12" height="12" rx="2" ry="2" fill="#ebedf0"><title>2025-05-15: 0 contributions</title></rect>
<rect x="446" y="94" width="12" height="12" rx="2" ry="2" fill="#ebedf0"><title>2025-05-16: 0 contributions</title></rect>
<rect x="446" y="108" width="12" height="12" rx="2" ry="2" fill="#ebedf0"><title>2025-05-17: 0 contributions</title></rect>
<rect x="460" y="24" width="12" height="12" rx="2" ry="2" fill="#ebedf0"><title>2025-05-18: 0 contributions</title></rect>
<rect x="460" y="38" width="12" height="12" rx="2" ry="2" fill="#ebedf0"><title>2025-05-19: 0 contributions</title></rect>
<rect x="460" y="52" width="12" height="12" rx="2" ry="2" fill="#ebedf0"><title>2025-05-20: 0 contributions</title></rect>
<rect x="460" y="66" width="12" height="12" rx="2" ry="2" fill="#ebedf0"><title>2025-05-21: 0 contributions</title></rect>
<rect x="460" y="80" width="12" height="12" rx="2" ry="2" fill="#40c463"><title>2025-05-22: 2 contributions</title></rect>
<rect x="460" y="94" width="12" height="12" rx="2" ry="2" fill="#40c463"><title>2025-05-23: 2 contributions</title></rect>
<rect x="460" y="108" width="12" height="12" rx="2" ry="2" fill="#ebedf0"><title>2025-05-24: 0 contributions</title></rect>
<rect x="474" y="24" width="12" height="12" rx="2" ry="2" fill="#ebedf0"><title>2025-05-25: 0 contributions</title></rect>
<rect x="474" y="38" width="12" height="12" rx="2" ry="2" fill="#ebedf0"><title>2025-05-26: 0 contributions</title></rect>
<rect x="474" y="52" width="12" height="12" rx="2" ry="2" fill="#ebedf0"><title>2025-05-27: 0 contributions</title></rect>
<rect x="474" y="66" width="12" height="12" rx="2" ry="2" fill="#ebedf0"><title>2025-05-28: 0 contributions</title></rect>
<rect x="474" y="80" width="12" height="12" rx="2" ry="2" fill="#40c463"><title>2025-05-29: 2 contributions</title></rect>
<rect x="474" y="94" width="12" height="12" rx="2" ry="2" fill="#ebedf0"><title>2025-05-30: 0 contributions</title></rect>
<rect x="474" y="108" width="12" height="12" rx="2" ry="2" fill="#ebedf0"><title>2025-05-31: 0 contributions</title></rect>
<rect x="488" y="24" width="12" height="12" rx="2" ry="2" fill="#ebedf0"><title>2025-06-01: 0 contributions</title></rect>
<rect x="488" y="38" width="12" height="12" rx="2" ry="2" fill="#ebedf0"><title>2025-06-02: 0 contributions</title></rect>
<rect x="488" y="52" width="12" height="12" rx="2" ry="2" fill="#40c463"><title>2025-06-03: 3 contributions</title></rect>
<rect x="488" y="66" width="12" height="12" rx="2" ry="2" fill="#30a14e"><title>2025-06-04: 6 contributions</title></rect>
<rect x="488" y="80" width="12" height="12" rx="2" ry="2" fill="#ebedf0"><title>2025-06-05: 0 contributions</title></rect>
<rect x="488" y="94" width="12" height="12" rx="2" ry="2" fill="#ebedf0"><title>2025-06-06: 0 contributions</title></rect>
<rect x="488" y="108" width="12" height="12" rx="2" ry="2" fill="#ebedf0"><title>2025-06-07: 0 contributions</title></rect>
<rect x="502" y="24" width="12" height="12" rx="2" ry="2" fill="#ebedf0"><title>2025-06-08: 0 contributions</title></rect>
<rect x="502" y="38" width="12" height="12" rx="2" ry="2" fill="#ebedf0"><title>2025-06-09: 0 contributions</title></rect>
<rect x="502" y="52" width="12" height="12" rx="2" ry="2" fill="#9be9a8"><title>2025-06-10: 1 contributions</title></rect>
<rect x="502" y="66" width="12" height="12" rx="2" ry="2" fill="#ebedf0"><title>2025-06-11: 0 contributions</title></rect>
<rect x="502" y="80" width="12" height="12" rx="2" ry="2" fill="#9be9a8"><title>2025-06-12: 1 contributions</title></rect>
<rect x="502" y="94" width="12" height="12" rx="2" ry="2" fill="#9be9a8"><title>2025-06-13: 1 contributions</title></rect>
<rect x="502" y="108" width="12" height="12" rx="2" ry="2" fill="#ebedf0"><title>2025-06-14: 0 contributions</title></rect>
<rect x="516" y="24" width="12" height="12" rx="2" ry="2" fill="#ebedf0"><title>2025-06-15: 0 contributions</title></rect>
<rect x="516" y="38" width="12" height="12" rx="2" ry="2" fill="#9be9a8"><title>2025-06-16: 1 contributions</title></rect>
<rect x="516" y="52" width="12" height="12" rx="2" ry="2" fill="#ebedf0"><title>2025-06-17: 0 contributions</title></rect>
<rect x="516" y="66" width="12" height="12" rx="2" ry="2" fill="#9be9a8"><title>2025-06-18: 1 contributions</title></rect>
<rect x="516" y="80" width="12" height="12" rx="2" ry="2" fill="#9be9a8"><title>2025-06-19: 1 contributions</title></rect>
<rect x="516" y="94" width="12" height="12" rx="2" ry="2" fill="#40c463"><title>2025-06-20: 2 contributions</title></rect>
<rect x="516" y="108" width="12" height="12" rx="2" ry="2" fill="#ebedf0"><title>2025-06-21: 0 contributions</title></rect>
<rect x="530" y="24" width="12" height="12" rx="2" ry="2" fill="#ebedf0"><title>2025-06-22: 0 contributions</title></rect>
<rect x="530" y="38" width="12" height="12" rx="2" ry="2" fill="#9be9a8"><title>2025-06-23: 1 contributions</title></rect>
<rect x="530" y="52" width="12" height="12" rx="2" ry="2" fill="#9be9a8"><title>2025-06-24: 1 contributions</title></rect>
<rect x="530" y="66" width="12" height="12" rx="2" ry="2" fill="#40c463"><title>2025-06-25: 2 contributions</title></rect>
<rect x="530" y="80" width="12" height="12" rx="2" ry="2" fill="#ebedf0"><title>2025-06-26: 0 contributions</title></rect>
<rect x="530" y="94" width="12" height="12" rx="2" ry="2" fill="#ebedf0"><title>2025-06-27: 0 contributions</title></rect>
<rect x="530" y="108" width="12" height="12" rx="2" ry="2" fill="#ebedf0"><title>2025-06-28: 0 contributions</title></rect>
<rect x="544" y="24" width="12" height="12" rx="2" ry="2" fill="#ebedf0"><title>2025-06-29: 0 contributions</title></rect>
<rect x="544" y="38" width="12" height="12" rx="2" ry="2" fill="#30a14e"><title>2025-06-30: 4 contributions</title></rect>
<rect x="544" y="52" width="12" height="12" rx="2" ry="2" fill="#ebedf0"><title>2025-07-01: 0 contributions</title></rect>
<rect x="544" y="66" width="12" height="12" rx="2" ry="2" fill="#40c463"><title>2025-07-02: 2 contributions</title></rect>
<rect x="544" y="80" width="12" height="12" rx="2" ry="2" fill="#216e39"><title>2025-07-03: 7 contributions</title></rect>
<rect x="544" y="94" width="12" height="12" rx="2" ry="2" fill="#ebedf0"><title>2025-07-04: 0 contributions</title></rect>
<rect x="544" y="108" width="12" height="12" rx="2" ry="2" fill="#ebedf0"><title>2025-07-05: 0 contributions</title></rect>
<rect x="558" y="24" width="12" height="12" rx="2" ry="2" fill="#ebedf0"><title>2025-07-06: 0 contributions</title></rect>
<rect x="558" y="38" width="12" height="12" rx="2" ry="2" fill="#30a14e"><title>2025-07-07: 4 contributions</title></rect>
<rect x="558" y="52" width="12" height="12" rx="2" ry="2" fill="#9be9a8"><title>2025-07-08: 1 contributions</title></rect>
<rect x="558" y="66" width="12" height="12" rx="2" ry="2" fill="#30a14e"><title>2025-07-09: 5 contributions</title></rect>
<rect x="558" y="80" width="12" height="12" rx="2" ry="2" fill="#9be9a8"><title>2025-07-10: 1 contributions</title></rect>
<rect x="558" y="94" width="12" height="12" rx="2" ry="2" fill="#30a14e"><title>2025-07-11: 5 contributions</title></rect>
<rect x="558" y="108" width="12" height="12" rx="2" ry="2" fill="#ebedf0"><title>2025-07-12: 0 contributions</title></rect>
<rect x="572" y="24" width="12" height="12" rx="2" ry="2" fill="#ebedf0"><title>2025-07-13: 0 contributions</title></rect>
<rect x="572" y="38" width="12" height="12" rx="2" ry="2" fill="#ebedf0"><title>2025-07-14: 0 contributions</title></rect>
<rect x="572" y="52" width="12" height="12" rx="2" ry="2" fill="#ebedf0"><title>2025-07-15: 0 contributions</title></rect>
<rect x="572" y="66" width="12" height="12" rx="2" ry="2" fill="#30a14e"><title>2025-07-16: 5 contributions</title></rect>
<rect x="572" y="80" width="12" height="12" rx="2" ry="2" fill="#9be9a8"><title>2025-07-17: 1 contributions</title></rect>
<rect x="572" y="94" width="12" height="12" rx="2" ry="2" fill="#ebedf0"><title>2025-07-18: 0 contributions</title></rect>
<rect x="572" y="108" width="12" height="12" rx="2" ry="2" fill="#ebedf0"><title>2025-07-19: 0 contributions</title></rect>
<rect x="586" y="24" width="12" height="12" rx="2" ry="2" fill="#ebedf0"><title>2025-07-20: 0 contributions</title></rect>
<rect x="586" y="38" width="12" height="12" rx="2" ry="2" fill="#ebedf0"><title>2025-07-21: 0 contributions</title></rect>
<rect x="586" y="52" width="12" height="12" rx="2" ry="2" fill="#ebedf0"><title>2025-07-22: 0 contributions</title></rect>
<rect x="586" y="66" width="12" height="12" rx="2" ry="2" fill="#ebedf0"><title>2025-07-23: 0 contributions</title></rect>
<rect x="586" y="80" width="12" height="12" rx="2" ry="2" fill="#ebedf0"><title>2025-07-24: 0 contributions</title></rect>
<rect x="586" y="94" width="12" height="12" rx="2" ry="2" fill="#ebedf0"><title>2025-07-25: 0 contributions</title></rect>
<rect x="586" y="108" width="12" height="12" rx="2" ry="2" fill="#ebedf0"><title>2025-07-26: 0 contributions</title></rect>
<rect x="600" y="24" width="12" height="12" rx="2" ry="2" fill="#ebedf0"><title>2025-07-27: 0 contributions</title></rect>
<rect x="600" y="38" width="12" height="12" rx="2" ry="2" fill="#40c463"><title>2025-07-28: 2 contributions</title></rect>
<rect x="600" y="52" width="12" height="12" rx="2" ry="2" fill="#40c463"><title>2025-07-29: 3 contributions</title></rect>
<rect x="600" y="66" width="12" height="12" rx="2" ry="2" fill="#40c463"><title>2025-07-30: 3 contributions</title></rect>
<rect x="600" y="80" width="12" height="12" rx="2" ry="2" fill="#40c463"><title>2025-07-31: 3 contributions</title></rect>
<rect x="600" y="94" width="12" height="12" rx="2" ry="2" fill="#9be9a8"><title>2025-08-01: 1 contributions</title></rect>
<rect x="600" y="108" width="12" height="12" rx="2" ry="2" fill="#ebedf0"><title>2025-08-02: 0 contributions</title></rect>
<rect x="614" y="24" width="12" height="12" rx="2" ry="2" fill="#ebedf0"><title>2025-08-03: 0 contributions</title></rect>
<rect x="614" y="38" width="12" height="12" rx="2" ry="2" fill="#ebedf0"><title>2025-08-04: 0 contributions</title></rect>
<rect x="614" y="52" width="12" height="12" rx="2" ry="2" fill="#ebedf0"><title>2025-08-05: 0 contributions</title></rect>
<rect x="614" y="66" width="12" height="12" rx="2" ry="2" fill="#40c463"><title>2025-08-06: 2 contributions</title></rect>
<rect x="614" y="80" width="12" height="12" rx="2" ry="2" fill="#9be9a8"><title>2025-08-07: 1 contributions</title></rect>
<rect x="614" y="94" width="12" height="12" rx="2" ry="2" fill="#40c463"><title>2025-08-08: 2 contributions</title></rect>
<rect x="614" y="108" width="12" height="12" rx="2" ry="2" fill="#ebedf0"><title>2025-08-09: 0 contributions</title></rect>
<rect x="628" y="24" width="12" height="12" rx="2" ry="2" fill="#ebedf0"><title>2025-08-10: 0 contributions</title></rect>
<rect x="628" y="38" width="12" height="12" rx="2" ry="2" fill="#30a14e"><title>2025-08-11: 4 contributions</title></rect>
<rect x="628" y="52" width="12" height="12" rx="2" ry="2" fill="#40c463"><title>2025-08-12: 3 contributions</title></rect>
<rect x="628" y="66" width="12" height="12" rx="2" ry="2" fill="#ebedf0"><title>2025-08-13: 0 contributions</title></rect>
<rect x="628" y="80" width="12" height="12" rx="2" ry="2" fill="#9be9a8"><title>2025-08-14: 1 contributions</title></rect>
<rect x="628" y="94" width="12" height="12" rx="2" ry="2" fill="#ebedf0"><title>2025-08-15: 0 contributions</title></rect>
<rect x="628" y="108" width="12" height="12" rx="2" ry="2" fill="#ebedf0"><title>2025-08-16: 0 contributions</title></rect>
<rect x="642" y="24" width="12" height="12" rx="2" ry="2" fill="#ebedf0"><title>2025-08-17: 0 contributions</title></rect>
<rect x="642" y="38" width="12" height="12" rx="2" ry="2" fill="#ebedf0"><title>2025-08-18: 0 contributions</title></rect>
<rect x="642" y="52" width="12" height="12" rx="2" ry="2" fill="#216e39"><title>2025-08-19: 7 contributions</title></rect>
<rect x="642" y="66" width="12" height="12" rx="2" ry="2" fill="#9be9a8"><title>2025-08-20: 1 contributions</title></rect>
<rect x="642" y="80" width="12" height="12" rx="2" ry="2" fill="#40c463"><title>2025-08-21: 3 contributions</title></rect>
<rect x="642" y="94" width="12" height="12" rx="2" ry="2" fill="#9be9a8"><title>2025-08-22: 1 contributions</title></rect>
<rect x="642" y="108" width="12" height="12" rx="2" ry="2" fill="#ebedf0"><title>2025-08-23: 0 contributions</title></rect>
<rect x="656" y="24" width="12" height="12" rx="2" ry="2" fill="#ebedf0"><title>2025-08-24: 0 contributions</title></rect>
<rect x="656" y="38" width="12" height="12" rx="2" ry="2" fill="#40c463"><title>2025-08-25: 2 contributions</title></rect>
<rect x="656" y="52" width="12" height="12" rx="2" ry="2" fill="#30a14e"><title>2025-08-26: 4 contributions</title></rect>
<rect x="656" y="66" width="12" height="12" rx="2" ry="2" fill="#30a14e"><title>2025-08-27: 4 contributions</title></rect>
<rect x="656" y="80" width="12" height="12" rx="2" ry="2" fill="#40c463"><title>2025-08-28: 3 contributions</title></rect>
<rect x="656" y="94" width="12" height="12" rx="2" ry="2" fill="#40c463"><title>2025-08-29: 3 contributions</title></rect>
<rect x="656" y="108" width="12" height="12" rx="2" ry="2" fill="#ebedf0"><title>2025-08-30: 0 contributions</title></rect>
<rect x="670" y="24" width="12" height="12" rx="2" ry="2" fill="#ebedf0"><title>2025-08-31: 0 contributions</title></rect>
<rect x="670" y="38" width="12" height="12" rx="2" ry="2" fill="#9be9a8"><title>2025-09-01: 1 contributions</title></rect>
<rect x="670" y="52" width="12" height="12" rx="2" ry="2" fill="#9be9a8"><title>2025-09-02: 1 contributions</title></rect>
<rect x="670" y="66" width="12" height="12" rx="2" ry="2" fill="#40c463"><title>2025-09-03: 3 contributions</title></rect>
<rect x="670" y="80" width="12" height="12" rx="2" ry="2" fill="#9be9a8"><title>2025-09-04: 1 contributions</title></rect>
<rect x="670" y="94" width="12" height="12" rx="2" ry="2" fill="#ebedf0"><title>2025-09-05: 0 contributions</title></rect>
<rect x="670" y="108" width="12" height="12" rx="2" ry="2" fill="#ebedf0"><title>2025-09-06: 0 contributions</title></rect>
<rect x="684" y="24" width="12" height="12" rx="2" ry="2" fill="#ebedf0"><title>2025-09-07: 0 contributions</title></rect>
<rect x="684" y="38" width="12" height="12" rx="2" ry="2" fill="#40c463"><title>2025-09-08: 2 contributions</title></rect>
<rect x="684" y="52" width="12" height="12" rx="2" ry="2" fill="#40c463"><title>2025-09-09: 2 contributions</title></rect>
<rect x="684" y="66" width="12" height="12" rx="2" ry="2" fill="#40c463"><title>2025-09-10: 2 contributions</title></rect>
<rect x="684" y="80" width="12" height="12" rx="2" ry="2" fill="#ebedf0"><title>2025-09-11: 0 contributions</title></rect>
<rect x="684" y="94" width="12" height="12" rx="2" ry="2" fill="#ebedf0"><title>2025-09-12: 0 contributions</title></rect>
<rect x="684" y="108" width="12" height="12" rx="2" ry="2" fill="#ebedf0"><title>2025-09-13: 0 contributions</title></rect>
<rect x="698" y="24" width="12" height="12" rx="2" ry="2" fill="#ebedf0"><title>2025-09-14: 0 contributions</title></rect>
<rect x="698" y="38" width="12" height="12" rx="2" ry="2" fill="#ebedf0"><title>2025-09-15: 0 contributions</title></rect>
<rect x="698" y="52" width="12" height="12" rx="2" ry="2" fill="#216e39"><title>2025-09-16: 7 contributions</title></rect>
<rect x="698" y="66" width="12" height="12" rx="2" ry="2" fill="#ebedf0"><title>2025-09-17: 0 contributions</title></rect>
<rect x="698" y="80" width="12" height="12" rx="2" ry="2" fill="#9be9a8"><title>2025-09-18: 1 contributions</title></rect>
<rect x="698" y="94" width="12" height="12" rx="2" ry="2" fill="#40c463"><title>2025-09-19: 3 contributions</title></rect>
<rect x="698" y="108" width="12" height="12" rx="2" ry="2" fill="#ebedf0"><title>2025-09-20: 0 contributions</title></rect>
<rect x="712" y="24" width="12" height="12" rx="2" ry="2" fill="#ebedf0"><title>2025-09-21: 0 contributions</title></rect>
<rect x="712" y="38" width="12" height="12" rx="2" ry="2" fill="#216e39"><title>2025-09-22: 7 contributions</title></rect>
<rect x="712" y="52" width="12" height="12" rx="2" ry="2" fill="#ebedf0"><title>2025-09-23: 0 contributions</title></rect>
<rect x="712" y="66" width="12" height="12" rx="2" ry="2" fill="#40c463"><title>2025-09-24: 2 contributions</title></rect>
<rect x="712" y="80" width="12" height="12" rx="2" ry="2" fill="#9be9a8"><title>2025-09-25: 1 contributions</title></rect>
<rect x="712" y="94" width="12" height="12" rx="2" ry="2" fill="#ebedf0"><title>2025-09-26: 0 contributions</title></rect>
<rect x="712" y="108" width="12" height="12" rx="2" ry="2" fill="#ebedf0"><title>2025-09-27: 0 contributions</title></rect>
<rect x="726" y="24" width="12" height="12" rx="2" ry="2" fill="#ebedf0"><title>2025-09-28: 0 contributions</title></rect>
<rect x="726" y="38" width="12" height="12" rx="2" ry="2" fill="#ebedf0"><title>2025-09-29: 0 contributions</title></rect>
<rect x="726" y="52" width="12" height="12" rx="2" ry="2" fill="#ebedf0"><title>2025-09-30: 0 contributions</title></rect>
<rect x="726" y="66" width="12" height="12" rx="2" ry="2" fill="#40c463"><title>2025-10-01: 3 contributions</title></rect>
<rect x="726" y="80" width="12" height="12" rx="2" ry="2" fill="#ebedf0"><title>2025-10-02: 0 contributions</title></rect>
<rect x="726" y="94" width="12" height="12" rx="2" ry="2" fill="#ebedf0"><title>2025-10-03: 0 contributions</title></rect>
<rect x="726" y="108" width="12" height="12" rx="2" ry="2" fill="#ebedf0"><title>2025-10-04: 0 contributions</title></rect>
<rect x="740" y="24" width="12" height="12" rx="2" ry="2" fill="#ebedf0"><title>2025-10-05: 0 contributions</title></rect>
<rect x="740" y="38" width="12" height="12" rx="2" ry="2" fill="#ebedf0"><title>2025-10-06: 0 contributions</title></rect>
<rect x="740" y="52" width="12" height="12" rx="2" ry="2" fill="#40c463"><title>2025-10-07: 3 contributions</title></rect>
<rect x="740" y="66" width="12" height="12" rx="2" ry="2" fill="#ebedf0"><title>2025-10-08: 0 contributions</title></rect>
<rect x="740" y="80" width="12" height="12" rx="2" ry="2" fill="#ebedf0"><title>2025-10-09: 0 contributions</title></rect>
<rect x="740" y="94" width="12" height="12" rx="2" ry="2" fill="#ebedf0"><title>2025-10-10: 0 contributions</title></rect>
<rect x="740" y="108" width="12" height="12" rx="2" ry="2" fill="#ebedf0"><title>2025-10-11: 0 contributions</title></rect>
<rect x="754" y="24" width="12" height="12" rx="2" ry="2" fill="#ebedf0"><title>2025-10-12: 0 contributions</title></rect>
<rect x="754" y="38" width="12" height="12" rx="2" ry="2" fill="#30a14e"><title>2025-10-13: 6 contributions</title></rect>
<rect x="754" y="52" width="12" height="12" rx="2" ry="2" fill="#ebedf0"><title>2025-10-14: 0 contributions</title></rect>
<rect x="754" y="66" width="12" height="12" rx="2" ry="2" fill="#ebedf0"><title>2025-10-15: 0 contributions</title></rect>
<rect x="754" y="80" width="12" height="12" rx="2" ry="2" fill="#ebedf0"><title>2025-10-16: 0 contributions</title></rect>
<rect x="754" y="94" width="12" height="12" rx="2" ry="2" fill="#216e39"><title>2025-10-17: 10 contributions</title></rect>
</svg>